<?xml version="1.0" standalone="no"?>
<!DOCTYPE svg PUBLIC "-//W3C//DTD SVG 1.1//EN" "http://www.w3.org/Graphics/SVG/1.1/DTD/svg11.dtd" >
<svg>
<metadata>
Created by FontForge 20120731 at Fri Apr 28 12:00:14 2017
 By www-data
Copyright 1987, 2001 Adobe Systems Incorporated. All rights reserved.
</metadata>
<defs>
<font id="OratorStd-Slanted" horiz-adv-x="600" >
  <font-face 
    font-family="Orator Std"
    font-weight="400"
    font-style="oblique"
    font-stretch="normal"
    units-per-em="1000"
    panose-1="2 13 5 9 2 2 3 10 2 4"
    ascent="667"
    descent="-333"
    x-height="521"
    cap-height="667"
    bbox="0 -288 734 1046"
    underline-thickness="63"
    underline-position="-28"
    slope="-12"
    stemh="60"
    stemv="67"
    unicode-range="U+0020-FB02"
  />
<missing-glyph 
d="M118 0v700h500v-700h-500zM368 395l170 255h-340zM398 350l170 -255v510zM198 50h340l-170 255zM168 605v-510l170 255z" />
    <glyph glyph-name=".notdef" 
d="M118 0v700h500v-700h-500zM368 395l170 255h-340zM398 350l170 -255v510zM198 50h340l-170 255zM168 605v-510l170 255z" />
    <glyph glyph-name="space" unicode=" " 
 />
    <glyph glyph-name="exclam" unicode="!" 
d="M375 207h-64l80 460h102zM254 0l31 148h92l-31 -148h-92z" />
    <glyph glyph-name="quotedbl" unicode="&#x22;" 
d="M320 676h92l-24 -111l-56 -135h-38l2 135zM477 676h92l-24 -111l-56 -135h-38l2 135z" />
    <glyph glyph-name="numbersign" unicode="#" 
d="M337 805h44l-162 -901h-45l61 335h-134l8 44h134l28 157h-134l8 44h134zM399 -96h-45l165 901h44l-58 -321h135l-9 -44h-134l-28 -157h134l-8 -44h-134z" />
    <glyph glyph-name="dollar" unicode="$" 
d="M395 298l-34 -161c45 2 89 34 99 80c9 44 -24 75 -65 81zM344 385l31 145c-35 -8 -65 -42 -72 -74c-7 -33 11 -60 41 -71zM291 137l39 181c-66 18 -112 66 -96 141c14 70 86 123 154 134l18 83h70l-18 -83c56 -5 97 -43 122 -87l-59 -43c-34 50 -51 63 -76 67l-35 -164
c78 -12 139 -61 120 -150c-18 -83 -104 -141 -182 -142l-18 -83h-70l18 83c-62 3 -104 48 -125 99l63 40c16 -34 32 -70 75 -76z" />
    <glyph glyph-name="percent" unicode="%" 
d="M458 116c6 32 6 75 -33 75c-40 0 -60 -43 -66 -75c-7 -32 -6 -75 34 -75c39 0 58 43 65 75zM625 675l32 -20l-517 -664l-53 32l453 580c-15 -6 -32 -8 -47 -8c-18 0 -35 3 -51 9c3 -17 2 -35 -2 -53c-14 -67 -65 -126 -136 -126c-72 0 -97 59 -83 126
c14 66 65 125 137 125c24 0 42 -7 64 -14c22 -8 45 -17 78 -17c40 0 86 7 125 30zM518 116c-14 -66 -65 -125 -136 -125c-72 0 -97 59 -83 125s64 125 136 125c71 0 97 -59 83 -125zM380 551c7 31 6 75 -33 75c-40 0 -59 -44 -66 -75c-7 -32 -6 -76 34 -76c39 0 58 44 65 76
z" />
    <glyph glyph-name="ampersand" unicode="&#x26;" 
d="M376 87l-78 149c-40 -24 -71 -46 -81 -92c-11 -53 19 -90 72 -90c29 0 62 13 87 33zM332 319l24 15c37 23 71 46 80 89c9 44 -9 76 -56 76c-41 0 -70 -30 -79 -69c-7 -34 2 -62 31 -111zM271 284l-10 20c-20 40 -34 70 -23 122c18 80 78 136 158 136
c78 0 120 -61 104 -136c-13 -64 -52 -103 -143 -156l70 -133c25 29 40 64 50 98l63 -13c-16 -50 -44 -101 -83 -142l29 -57l-59 -37l-26 49c-40 -27 -83 -44 -129 -44c-87 0 -145 63 -126 152c15 67 68 106 125 141z" />
    <glyph glyph-name="quoteright" unicode="&#x2019;" 
d="M407 667h92l-10 -45c-15 -67 -77 -130 -145 -162l-12 55c39 22 55 56 62 91z" />
    <glyph glyph-name="parenleft" unicode="(" 
d="M506 676l31 -39c-108 -86 -169 -213 -194 -332c-26 -120 -18 -246 53 -332l-48 -40c-86 89 -103 240 -75 372s109 283 233 371z" />
    <glyph glyph-name="parenright" unicode=")" 
d="M333 637l49 39c86 -88 103 -239 75 -371s-109 -283 -233 -372l-32 40c109 86 169 212 195 332c25 119 18 246 -54 332z" />
    <glyph glyph-name="asterisk" unicode="*" 
d="M263 564l98 -10l-48 74l79 48l32 -94l72 94l57 -48l-78 -74l102 10l-19 -88l-98 9l48 -73l-79 -49l-32 95l-72 -95l-57 49l78 73l-102 -9zM416 548c-15 0 -30 -13 -33 -28c-4 -16 7 -28 22 -28s30 12 34 28c3 15 -8 28 -23 28z" />
    <glyph glyph-name="plus" unicode="+" 
d="M634 382v-44h-244v-244h-44v244h-244v44h244v244h44v-244h244z" />
    <glyph glyph-name="comma" unicode="," 
d="M296 148h92l-9 -45c-13 -67 -78 -130 -146 -162l-11 55c39 22 54 56 61 91z" />
    <glyph glyph-name="hyphen" unicode="-" 
d="M238 229l13 63h222l-13 -63h-222z" />
    <glyph glyph-name="period" unicode="." 
d="M254 0l31 148h92l-31 -148h-92z" />
    <glyph glyph-name="slash" unicode="/" 
d="M175 -27h-46l296 774h46z" />
    <glyph glyph-name="zero" unicode="0" 
d="M444 676c212 0 129 -268 113 -343c-23 -107 -55 -342 -259 -342s-138 227 -113 342c33 157 65 343 259 343zM430 613c-126 0 -147 -147 -175 -280c-56 -262 -12 -279 56 -279c77 0 123 31 176 279c55 258 14 280 -57 280z" />
    <glyph glyph-name="one" unicode="1" 
d="M292 60l112 526l-132 -47l-8 61l227 80l-132 -620h143l-13 -60h-378l13 60h168z" />
    <glyph glyph-name="two" unicode="2" 
d="M114 0l13 60l315 319c39 40 70 71 82 125c13 63 -19 109 -84 109c-79 0 -132 -62 -157 -134l-64 9c39 111 117 188 235 188c105 0 163 -64 141 -170c-14 -64 -57 -114 -105 -163l-278 -283h287l-13 -60h-372z" />
    <glyph glyph-name="three" unicode="3" 
d="M266 350l12 54l240 203h-278l13 60h370l-13 -60l-225 -189c104 2 180 -59 157 -170c-19 -89 -81 -158 -164 -203c-63 -34 -132 -54 -260 -54l13 63c110 0 160 13 199 32c66 33 126 90 141 160c18 85 -51 112 -125 112c-26 0 -53 -5 -80 -8z" />
    <glyph glyph-name="four" unicode="4" 
d="M406 167h-261l209 513l63 -18l-179 -435h181l72 339h67l-72 -339h53l-13 -60h-53l-35 -167h-67z" />
    <glyph glyph-name="five" unicode="5" 
d="M206 325l73 342h342l-13 -60h-275l-44 -205c36 12 69 21 104 21c98 0 167 -66 143 -177c-18 -87 -80 -159 -161 -205c-59 -33 -131 -50 -261 -50l13 63c83 0 152 5 202 29c66 32 122 93 137 163c15 71 -23 114 -93 114c-42 0 -79 -16 -119 -35h-48z" />
    <glyph glyph-name="six" unicode="6" 
d="M591 618l-49 -55c-26 27 -54 50 -97 50c-121 0 -161 -154 -183 -243c47 34 91 54 144 54c126 0 151 -104 127 -214c-25 -119 -111 -219 -239 -219c-172 0 -139 208 -112 335c29 136 92 350 274 350c55 0 103 -21 135 -58zM246 296c-44 -209 5 -242 66 -242
c82 0 133 72 150 153c16 76 10 154 -79 154c-48 0 -96 -33 -137 -65z" />
    <glyph glyph-name="seven" unicode="7" 
d="M156 14l392 593h-275l13 60h372l-448 -680z" />
    <glyph glyph-name="eight" unicode="8" 
d="M366 311c-67 -37 -135 -65 -152 -144c-14 -69 30 -113 97 -113s131 44 145 113c17 79 -39 107 -90 144zM381 380c56 33 112 59 126 126c13 60 -14 107 -77 107s-108 -47 -121 -107c-14 -67 30 -93 72 -126zM577 506c-16 -77 -77 -123 -146 -161c67 -38 116 -82 96 -175
c-23 -109 -123 -179 -229 -179s-176 70 -153 179c20 93 87 137 171 175c-53 38 -93 84 -77 161c21 97 107 170 205 170s154 -73 133 -170z" />
    <glyph glyph-name="nine" unicode="9" 
d="M150 49l50 55c25 -28 54 -50 97 -50c121 0 161 154 183 243c-46 -34 -91 -54 -143 -54c-126 0 -150 103 -127 214c25 118 110 219 238 219c173 0 138 -208 111 -335c-28 -136 -91 -350 -273 -350c-54 0 -103 21 -136 58zM496 370c43 205 -3 243 -66 243
c-82 0 -131 -72 -149 -154c-16 -76 -11 -153 79 -153c47 0 96 33 136 64z" />
    <glyph glyph-name="colon" unicode=":" 
d="M254 0l31 148h92l-31 -148h-92zM314 284l32 148h92l-32 -148h-92z" />
    <glyph glyph-name="semicolon" unicode=";" 
d="M296 148h92l-9 -45c-13 -67 -78 -130 -146 -162l-11 55c39 22 54 56 61 91zM325 284l32 148h92l-32 -148h-92z" />
    <glyph glyph-name="less" unicode="&#x3c;" 
d="M166 360l379 360l25 -32l-340 -328l340 -328l-25 -32z" />
    <glyph glyph-name="equal" unicode="=" 
d="M634 449v-44h-532v44h532zM634 315v-44h-532v44h532z" />
    <glyph glyph-name="greater" unicode="&#x3e;" 
d="M191 720l379 -360l-379 -360l-25 32l340 328l-340 328z" />
    <glyph glyph-name="question" unicode="?" 
d="M378 220h-69l3 17c13 73 25 88 92 136c50 37 102 71 115 132c14 62 -13 108 -78 108c-80 0 -129 -69 -156 -138l-62 17c43 107 112 184 230 184c103 0 159 -65 137 -169c-17 -77 -71 -124 -136 -171c-48 -36 -61 -44 -73 -102zM250 0l31 148h92l-31 -148h-92z" />
    <glyph glyph-name="at" unicode="@" 
d="M530 131l10 -63c-83 -48 -174 -77 -262 -77c-125 0 -243 86 -200 287c39 182 185 398 391 398c106 0 239 -80 197 -278c-20 -91 -90 -228 -201 -228c-41 0 -52 12 -74 41c-36 -26 -59 -41 -101 -41c-53 0 -83 37 -72 90c11 52 47 118 88 159c37 37 87 64 224 59l-57 -151
c-5 -13 -16 -41 -19 -54c-5 -22 2 -40 26 -40c64 0 104 111 115 160c28 132 -31 220 -146 220c-117 0 -255 -121 -301 -337c-30 -138 29 -222 148 -222c82 0 156 33 234 77zM429 389l10 26c-26 -5 -56 -7 -79 -29c-30 -29 -62 -82 -71 -121c-3 -15 1 -32 20 -32
c30 0 72 31 120 156z" />
    <glyph glyph-name="A" unicode="A" 
d="M435 206h-182l-99 -219l-62 18l310 662h80l28 -662l-70 -18zM432 266l-8 312h-2l-140 -312h150z" />
    <glyph glyph-name="B" unicode="B" 
d="M256 60h91c60 0 110 44 131 141c21 99 -21 132 -91 132h-73zM327 393h60c69 0 108 36 123 106c17 82 -18 108 -99 108h-39zM337 0h-215l13 60h54l116 547h-54l13 60h204c73 0 135 -61 112 -168c-12 -55 -44 -102 -98 -129c68 -33 83 -90 66 -170
c-30 -139 -119 -200 -211 -200z" />
    <glyph glyph-name="C" unicode="C" 
d="M461 138l47 -38c-52 -63 -120 -109 -196 -109c-174 0 -155 210 -127 342c28 133 99 343 273 343c76 0 118 -44 140 -108l-64 -34c-13 42 -39 79 -90 79c-122 0 -170 -192 -189 -280c-18 -87 -52 -279 70 -279c52 0 103 43 136 84z" />
    <glyph glyph-name="D" unicode="D" 
d="M302 607h-54l13 60h176c134 0 200 -59 142 -334c-31 -147 -79 -333 -282 -333h-178l13 60h54zM369 607l-116 -547h55c81 0 147 21 201 273c54 254 -10 274 -69 274h-71z" />
    <glyph glyph-name="E" unicode="E" 
d="M157 0l142 667h325l-13 -60h-258l-47 -220h213l-12 -60h-213l-57 -267h258l-13 -60h-325z" />
    <glyph glyph-name="F" unicode="F" 
d="M176 0l142 667h328l-13 -60h-261l-47 -220h219l-12 -60h-219l-70 -327h-67z" />
    <glyph glyph-name="G" unicode="G" 
d="M550 346l-64 -297c-50 -35 -111 -58 -167 -58c-172 0 -157 208 -129 341c27 125 102 344 268 344c75 0 120 -46 144 -107l-67 -36c-15 43 -42 80 -95 80c-111 0 -164 -204 -181 -283c-49 -229 8 -276 74 -276c28 0 67 12 94 31l43 201h-125l13 60h192z" />
    <glyph glyph-name="H" unicode="H" 
d="M130 0l142 667h67l-60 -280h206l60 280h67l-142 -667h-67l70 327h-206l-70 -327h-67z" />
    <glyph glyph-name="I" unicode="I" 
d="M279 60l116 547h-90l13 60h248l-13 -60h-91l-116 -547h91l-13 -60h-248l13 60h90z" />
    <glyph glyph-name="J" unicode="J" 
d="M160 242h67l-14 -67c-11 -53 -3 -121 73 -121c60 0 108 54 124 130l103 483h67l-104 -490c-27 -127 -122 -186 -208 -186c-82 0 -148 58 -121 189z" />
    <glyph glyph-name="K" unicode="K" 
d="M371 667l-59 -275h18l248 288l46 -34l-243 -282l146 -343l-63 -34l-141 345h-23l-71 -332h-67l142 667h67z" />
    <glyph glyph-name="L" unicode="L" 
d="M169 0l142 667h67l-129 -607h274l-13 -60h-341z" />
    <glyph glyph-name="M" unicode="M" 
d="M382 384l156 283h84l-122 -667h-71l105 556h-2l-185 -335l-43 335h-2l-131 -556h-70l162 667h83z" />
    <glyph glyph-name="N" unicode="N" 
d="M126 0l142 667h84l79 -561l2 2l29 149l87 410h67l-142 -667h-84l-79 562l-2 -2l-29 -151l-87 -409h-67z" />
    <glyph glyph-name="O" unicode="O" 
d="M444 676c188 0 131 -254 112 -342c-18 -84 -70 -343 -258 -343c-190 0 -130 257 -112 343c23 110 80 342 258 342zM430 613c-118 0 -153 -181 -174 -279c-38 -180 -39 -280 55 -280c116 0 150 164 175 280c27 126 62 279 -56 279z" />
    <glyph glyph-name="P" unicode="P" 
d="M292 297l-63 -297h-67l142 667h145c118 0 170 -63 146 -177c-26 -124 -111 -193 -203 -193h-100zM358 607l-53 -250l94 1c62 1 108 48 126 132c18 82 -18 117 -90 117h-77z" />
    <glyph glyph-name="Q" unicode="Q" 
d="M452 81l37 -58l-60 -42l-29 47c-31 -23 -67 -37 -102 -37c-93 0 -165 92 -112 342c49 233 154 343 258 343c93 0 166 -91 112 -343c-17 -82 -47 -179 -104 -252zM369 76l-63 101l60 43l52 -83c33 61 53 129 67 194c16 76 54 282 -56 282c-109 0 -158 -209 -174 -285
c-15 -71 -50 -274 51 -274c23 0 44 6 63 22z" />
    <glyph glyph-name="R" unicode="R" 
d="M358 607l-53 -250h98c59 0 103 43 122 133c19 87 -17 117 -85 117h-82zM162 0l142 667h180c66 0 137 -57 111 -177c-17 -82 -67 -160 -155 -188l77 -286l-66 -29l-84 310h-75l-63 -297h-67z" />
    <glyph glyph-name="S" unicode="S" 
d="M440 173c18 88 -32 118 -93 158c-67 45 -111 77 -90 175c19 90 96 170 191 170c94 0 125 -67 125 -151l-68 -10c0 49 -14 98 -71 98c-63 0 -98 -51 -110 -107c-11 -54 -5 -71 87 -134c71 -49 119 -90 97 -193c-22 -105 -96 -188 -208 -188c-118 0 -144 78 -132 184l69 9
c-7 -74 -3 -130 78 -130c58 0 108 39 125 119z" />
    <glyph glyph-name="T" unicode="T" 
d="M268 0l129 607h-144l13 60h352l-13 -60h-141l-129 -607h-67z" />
    <glyph glyph-name="U" unicode="U" 
d="M279 667h67l-103 -485c-14 -66 -15 -128 68 -128s111 63 125 128l103 485h67l-108 -505c-22 -104 -101 -171 -200 -171c-101 0 -148 69 -127 168z" />
    <glyph glyph-name="V" unicode="V" 
d="M339 181l244 499l65 -14l-343 -679h-16l-53 679l71 14l30 -499h2z" />
    <glyph glyph-name="W" unicode="W" 
d="M586 680l64 -13l-212 -680h-29l-25 403h-2l-197 -403h-29l78 680l70 13l-75 -501h2l172 351h20l22 -351h2z" />
    <glyph glyph-name="X" unicode="X" 
d="M363 292l-213 -305l-54 28l248 348l-82 286l69 31l61 -249l167 249l55 -31l-204 -286l100 -348l-66 -28z" />
    <glyph glyph-name="Y" unicode="Y" 
d="M372 341l217 339l56 -25l-256 -392l-56 -263h-67l56 263l-89 392l68 25z" />
    <glyph glyph-name="Z" unicode="Z" 
d="M104 0l412 607h-254l13 60h355l-411 -607h290l-13 -60h-392z" />
    <glyph glyph-name="bracketleft" unicode="[" 
d="M322 676h270l-13 -60h-203l-126 -594h203l-13 -60h-270z" />
    <glyph glyph-name="backslash" unicode="\" 
d="M425 -27l-296 774h46l296 -774h-46z" />
    <glyph glyph-name="bracketright" unicode="]" 
d="M566 676l-152 -714h-270l13 60h203l126 594h-203l13 60h270z" />
    <glyph glyph-name="asciicircum" unicode="^" 
d="M228 357h-50l164 323h52l161 -323h-50l-137 275z" />
    <glyph glyph-name="underscore" unicode="_" 
d="M600 -108h-600v36h600v-36z" />
    <glyph glyph-name="quoteleft" unicode="&#x2018;" 
d="M408 469h-92l9 45c13 67 78 130 146 162l11 -55c-39 -22 -54 -56 -61 -91z" />
    <glyph glyph-name="a" unicode="a" 
d="M423 142h-185l-82 -155l-61 24l273 510h86l55 -510l-71 -24zM417 202l-23 241l-125 -241h148z" />
    <glyph glyph-name="b" unicode="b" 
d="M256 60h78c59 0 117 13 132 84c11 52 -14 94 -78 94h-94zM306 298h75c58 0 95 37 105 84c13 62 -27 79 -74 79h-71zM334 0h-212l13 60h54l85 401h-54l13 60h164c132 0 178 -50 159 -139c-9 -45 -37 -85 -82 -107c54 -18 75 -67 63 -126c-20 -94 -94 -149 -203 -149z" />
    <glyph glyph-name="c" unicode="c" 
d="M461 138l47 -38c-56 -66 -115 -109 -196 -109c-152 0 -170 140 -143 269c44 208 168 270 252 270c81 0 119 -42 141 -111l-68 -31c-13 42 -35 79 -86 79c-104 0 -152 -126 -169 -206c-17 -81 -25 -207 81 -207c61 0 100 37 141 84z" />
    <glyph glyph-name="d" unicode="d" 
d="M217 461l13 60h174c148 0 202 -61 161 -254c-35 -163 -85 -267 -272 -267h-174l13 60h54l85 401h-54zM338 461l-85 -401h71c88 0 137 50 169 200c34 160 -3 201 -86 201h-69z" />
    <glyph glyph-name="e" unicode="e" 
d="M157 0l111 521h325l-13 -60h-258l-33 -156h213l-13 -60h-213l-39 -185h258l-13 -60h-325z" />
    <glyph glyph-name="f" unicode="f" 
d="M176 0l111 521h328l-13 -60h-261l-33 -156h219l-13 -60h-219l-52 -245h-67z" />
    <glyph glyph-name="g" unicode="g" 
d="M535 278l-49 -230c-50 -34 -119 -57 -172 -57c-153 0 -167 142 -140 270c27 126 104 269 253 269c70 0 122 -41 145 -100l-64 -37c-17 42 -48 74 -99 74c-103 0 -148 -129 -165 -208c-17 -81 -26 -205 79 -205c34 0 70 9 103 27l29 137h-125l13 60h192z" />
    <glyph glyph-name="h" unicode="h" 
d="M130 0l111 521h67l-46 -216h206l46 216h67l-111 -521h-67l52 245h-206l-52 -245h-67z" />
    <glyph glyph-name="i" unicode="i" 
d="M193 0l13 60h73l85 401h-73l13 60h214l-13 -60h-74l-85 -401h74l-13 -60h-214z" />
    <glyph glyph-name="j" unicode="j" 
d="M150 194h67c-25 -102 -5 -140 64 -140c68 0 111 41 124 104l77 363h67l-80 -376c-16 -74 -85 -154 -201 -154c-112 0 -147 64 -118 203z" />
    <glyph glyph-name="k" unicode="k" 
d="M340 521l-47 -222h25l229 235l42 -40l-220 -219l151 -245l-60 -43l-156 257h-23l-52 -244h-67l111 521h67z" />
    <glyph glyph-name="l" unicode="l" 
d="M170 0l111 521h67l-98 -461h273l-13 -60h-340z" />
    <glyph glyph-name="m" unicode="m" 
d="M331 147l-58 275h-2l-103 -422h-71l132 521h88l46 -226l142 226h88l-90 -521h-71l77 422h-2z" />
    <glyph glyph-name="n" unicode="n" 
d="M126 0l111 521h83l108 -439l3 2l23 135l64 302h67l-111 -521h-83l-109 439l-2 -2l-23 -136l-64 -301h-67z" />
    <glyph glyph-name="o" unicode="o" 
d="M413 530c83 0 172 -60 127 -270c-9 -42 -60 -269 -242 -269c-84 0 -172 60 -128 269c44 208 157 270 243 270zM399 467c-101 0 -142 -130 -159 -207c-16 -76 -30 -206 71 -206s143 130 159 206c17 77 30 207 -71 207z" />
    <glyph glyph-name="p" unicode="p" 
d="M277 224l-48 -224h-67l111 521h162c121 0 154 -66 138 -142c-24 -110 -111 -155 -184 -155h-112zM289 284h92c66 0 107 30 120 90c15 71 -27 87 -82 87h-92z" />
    <glyph glyph-name="q" unicode="q" 
d="M456 70l47 -54l-51 -45l-47 53c-34 -22 -70 -33 -107 -33c-83 0 -173 60 -128 269c42 199 149 270 243 270c83 0 172 -60 127 -270c-13 -61 -38 -138 -84 -190zM366 68l-70 79l51 46l68 -77c28 45 45 96 55 144c17 77 30 207 -71 207s-142 -130 -159 -207
c-16 -76 -30 -206 71 -206c18 0 38 5 55 14z" />
    <glyph glyph-name="r" unicode="r" 
d="M276 283h88c66 0 116 37 129 96c10 47 -11 82 -71 82h-108zM149 0l111 521h177c87 0 147 -41 126 -142c-14 -64 -70 -127 -137 -146l83 -211l-66 -35l-83 236h-97l-47 -223h-67z" />
    <glyph glyph-name="s" unicode="s" 
d="M162 146l64 19c-1 -64 20 -111 90 -111c55 0 105 30 117 88c14 64 -37 80 -83 101c-70 32 -137 52 -116 150c18 88 100 137 182 137c87 0 127 -50 131 -131l-68 -19c-1 51 -21 87 -78 87c-43 0 -89 -22 -99 -69c-11 -49 16 -64 52 -81l101 -49c41 -26 58 -68 46 -122
c-21 -99 -102 -155 -198 -155c-97 0 -145 62 -141 155z" />
    <glyph glyph-name="t" unicode="t" 
d="M268 0l98 461h-144l13 60h352l-13 -60h-141l-98 -461h-67z" />
    <glyph glyph-name="u" unicode="u" 
d="M248 521h67l-76 -355c-16 -76 -2 -112 67 -112c84 0 110 37 126 112l76 355h67l-83 -387c-15 -69 -79 -143 -194 -143c-113 0 -148 71 -132 147z" />
    <glyph glyph-name="v" unicode="v" 
d="M332 152l224 382l58 -24l-311 -523h-12l-89 523l70 24z" />
    <glyph glyph-name="w" unicode="w" 
d="M205 526l71 8l-38 -366h2l141 256h18l33 -256h2l119 366l66 -8l-190 -539h-23l-41 321l-177 -321h-23z" />
    <glyph glyph-name="x" unicode="x" 
d="M346 217l-188 -230l-53 34l216 255l-100 223l69 35l81 -198l167 198l53 -35l-194 -223l106 -255l-67 -34z" />
    <glyph glyph-name="y" unicode="y" 
d="M357 266l196 268l55 -33l-232 -300l-43 -201h-67l43 201l-105 300l71 33z" />
    <glyph glyph-name="z" unicode="z" 
d="M104 0l371 461h-244l13 60h355l-369 -461h279l-13 -60h-392z" />
    <glyph glyph-name="braceleft" unicode="{" 
d="M272 73l28 132c19 91 -16 76 -84 99c77 25 107 12 126 100l28 133c21 100 69 139 179 139h56l-6 -25h-24c-97 0 -120 -28 -135 -100l-30 -140c-10 -45 -18 -82 -68 -107c40 -24 32 -60 23 -105l-29 -140c-15 -74 0 -101 93 -101h23l-5 -25h-33c-138 0 -164 38 -142 140z
" />
    <glyph glyph-name="bar" unicode="|" 
d="M346 -288v1080h44v-1080h-44z" />
    <glyph glyph-name="braceright" unicode="}" 
d="M458 536l-28 -132c-19 -91 16 -76 84 -99c-77 -25 -107 -12 -126 -100l-29 -133c-22 -100 -68 -139 -178 -139h-56l5 25h24c98 0 120 28 135 100l30 140c10 45 19 82 69 107c-40 24 -34 60 -24 105l30 140c16 74 -1 101 -94 101h-23l6 25h33c138 0 164 -38 142 -140z" />
    <glyph glyph-name="asciitilde" unicode="~" 
d="M606 441l32 -23c-29 -54 -84 -114 -150 -114c-59 0 -188 75 -240 75c-62 0 -91 -54 -119 -100l-31 23c30 53 76 121 145 121c82 0 188 -75 244 -75c52 0 98 49 119 93z" />
    <glyph glyph-name="exclamdown" unicode="&#xa1;" 
d="M359 519l32 148h92l-32 -148h-92zM424 460l-78 -460h-102l116 460h64z" />
    <glyph glyph-name="cent" unicode="&#xa2;" 
d="M354 68l-16 -77h-67l17 79c-119 26 -126 154 -103 266c24 112 87 241 216 267l16 73h67l-16 -72c59 -7 95 -57 110 -108l-67 -32c-10 31 -25 61 -57 74l-86 -405c43 10 81 47 109 81l47 -38c-45 -54 -101 -100 -170 -108zM302 136l85 401c-82 -29 -116 -128 -131 -200
c-15 -71 -25 -173 46 -201z" />
    <glyph glyph-name="sterling" unicode="&#xa3;" 
d="M614 560l-66 -22c-12 46 -39 78 -94 78c-64 0 -116 -42 -130 -108c-8 -38 -5 -65 -2 -104h184l-13 -60h-166c2 -40 8 -82 -1 -123c-12 -54 -42 -91 -78 -137c22 5 46 8 68 8c27 0 46 -10 65 -19c16 -10 31 -20 45 -20c27 0 51 20 72 36l31 -44c-37 -29 -71 -54 -115 -54
c-26 0 -43 9 -61 19c-18 9 -37 19 -67 19c-44 0 -80 -18 -121 -38l-26 47c81 99 108 139 116 178c8 37 6 91 4 128h-106l13 60h89c-3 36 -8 73 0 111c20 94 117 161 208 161c79 0 137 -43 151 -116z" />
    <glyph glyph-name="fraction" unicode="&#x2044;" 
d="M607 680l46 -29l-518 -664l-47 26z" />
    <glyph glyph-name="yen" unicode="&#xa5;" 
d="M428 327h122l-13 -60h-147l-57 -267h-67l57 267h-146l13 60h122l-79 328l68 25l71 -339l217 339l56 -25z" />
    <glyph glyph-name="florin" unicode="&#x192;" 
d="M466 494l-35 -103h96l-13 -60h-103l-97 -292c-8 -24 -44 -173 -182 -173h-51l12 60h43c70 0 90 53 113 122l94 283h-107l13 60h114l38 112c8 24 45 173 183 173h51l-13 -60h-43c-70 0 -90 -53 -113 -122z" />
    <glyph glyph-name="section" unicode="&#xa7;" 
d="M406 394l-64 36c-22 -18 -39 -40 -45 -67c-5 -23 1 -39 28 -55l91 -54c23 15 42 40 47 65c9 40 -30 60 -57 75zM364 202l-43 25c-52 30 -111 57 -94 134c8 38 36 76 71 97c-22 23 -30 55 -22 91c16 79 102 127 175 127c66 0 116 -43 128 -103l-65 -26
c-8 39 -32 69 -78 69c-42 0 -81 -25 -91 -69c-9 -44 34 -60 63 -76l39 -22c48 -27 101 -55 87 -123c-9 -41 -38 -77 -75 -101c28 -25 43 -54 34 -98c-18 -86 -107 -136 -187 -136c-83 0 -141 51 -146 131l72 23c5 -53 33 -94 93 -94c43 0 87 24 97 70c10 47 -26 63 -58 81z
" />
    <glyph glyph-name="currency" unicode="&#xa4;" 
d="M190 506l-109 107l33 32l108 -107c42 34 94 52 148 52s106 -18 148 -52l108 107l33 -32l-109 -107c33 -45 50 -90 50 -146s-17 -101 -50 -146l109 -107l-33 -32l-108 107c-42 -34 -94 -52 -148 -52s-106 18 -148 52l-108 -107l-33 32l109 107c-33 45 -50 90 -50 146
s17 101 50 146zM370 169c108 0 191 83 191 191s-83 192 -191 192s-191 -84 -191 -192s83 -191 191 -191z" />
    <glyph glyph-name="quotesingle" unicode="'" 
d="M398 676h92l-24 -111l-56 -135h-38l2 135z" />
    <glyph glyph-name="quotedblleft" unicode="&#x201c;" 
d="M521 469h-92l9 45c13 67 78 130 146 162l11 -55c-39 -22 -54 -56 -61 -91zM335 469h-92l9 45c13 67 78 130 146 162l11 -55c-39 -22 -54 -56 -61 -91z" />
    <glyph glyph-name="guillemotleft" unicode="&#xab;" 
d="M414 570l37 -49l-246 -191l164 -192l-57 -50l-203 242zM638 570l37 -49l-246 -191l164 -192l-57 -50l-203 242z" />
    <glyph glyph-name="guilsinglleft" unicode="&#x2039;" 
d="M517 570l37 -49l-246 -191l164 -192l-57 -50l-203 242z" />
    <glyph glyph-name="guilsinglright" unicode="&#x203a;" 
d="M325 570l203 -240l-305 -242l-37 50l246 192l-164 191z" />
    <glyph glyph-name="fi" unicode="&#xfb01;" 
d="M651 521l-13 -60h-73l-85 -401h73l-13 -60h-213l13 60h73l85 401h-243l-33 -156h152l-13 -60h-152l-52 -245h-67l111 521h450z" />
    <glyph glyph-name="fl" unicode="&#xfb02;" 
d="M541 521l-98 -461h160l-13 -60h-227l98 461h-220l-33 -156h152l-13 -60h-152l-52 -245h-67l111 521h354z" />
    <glyph glyph-name="endash" unicode="&#x2013;" 
d="M127 229l13 63h444l-13 -63h-444z" />
    <glyph glyph-name="dagger" unicode="&#x2020;" 
d="M336 347l21 76l-119 -6l15 73l118 -6l29 183h85l-49 -183l120 6l-15 -73l-117 6l-11 -76l-84 -347h-57z" />
    <glyph glyph-name="daggerdbl" unicode="&#x2021;" 
d="M360 439l-122 -6l15 72l118 -6l30 168h83l-42 -168l120 6l-15 -72l-120 6l-45 -211l123 6l-16 -73l-117 7l-30 -168h-83l42 168l-121 -7l16 73l119 -6z" />
    <glyph glyph-name="periodcentered" unicode="&#xb7;" 
d="M320 360c0 28 22 50 50 50s50 -22 50 -50s-22 -50 -50 -50s-50 22 -50 50z" />
    <glyph glyph-name="paragraph" unicode="&#xb6;" 
d="M264 -67l75 356c-120 -9 -206 68 -180 192c13 61 59 195 282 195h246l-13 -60h-46l-145 -683h-67l145 683h-85l-145 -683h-67z" />
    <glyph glyph-name="bullet" unicode="&#x2022;" 
d="M234 252c0 67 56 123 123 123s123 -56 123 -123c0 -69 -56 -123 -123 -123c-69 0 -123 54 -123 123z" />
    <glyph glyph-name="quotesinglbase" unicode="&#x201a;" 
d="M296 148h92l-9 -45c-13 -67 -78 -130 -146 -162l-11 55c39 22 54 56 61 91z" />
    <glyph glyph-name="quotedblbase" unicode="&#x201e;" 
d="M210 148h92l-9 -45c-13 -67 -78 -130 -146 -162l-11 55c39 22 54 56 61 91zM396 148h92l-9 -45c-13 -67 -78 -130 -146 -162l-11 55c39 22 54 56 61 91z" />
    <glyph glyph-name="quotedblright" unicode="&#x201d;" 
d="M321 667h92l-10 -45c-15 -67 -77 -130 -145 -162l-12 55c39 22 55 56 62 91zM507 667h92l-10 -45c-15 -67 -77 -130 -145 -162l-12 55c39 22 55 56 62 91z" />
    <glyph glyph-name="guillemotright" unicode="&#xbb;" 
d="M204 570l203 -240l-305 -242l-37 50l246 192l-164 191zM428 570l203 -240l-305 -242l-37 50l246 192l-164 191z" />
    <glyph glyph-name="ellipsis" unicode="&#x2026;" 
d="M54 0l31 148h92l-31 -148h-92zM254 0l31 148h92l-31 -148h-92zM454 0l31 148h92l-31 -148h-92z" />
    <glyph glyph-name="perthousand" unicode="&#x2030;" 
d="M345 116c6 28 9 75 -28 75s-54 -47 -60 -75s-9 -75 28 -75s54 47 60 75zM507 676l28 -21l-477 -664l-46 32l417 580c-14 -6 -28 -8 -42 -8c-16 0 -31 3 -45 9c2 -17 1 -35 -3 -53c-13 -60 -57 -126 -125 -126s-84 66 -71 126c13 59 57 125 125 125c18 0 34 -4 49 -12
c24 -13 46 -19 77 -19c37 0 78 8 113 31zM285 551c6 28 9 75 -28 75s-54 -47 -60 -75s-9 -76 28 -76s54 48 60 76zM399 116c-13 -60 -57 -125 -125 -125s-84 65 -71 125c12 60 56 125 124 125s84 -65 72 -125zM618 116c-13 -60 -57 -125 -125 -125s-84 65 -71 125
c12 60 56 125 124 125s84 -65 72 -125zM564 116c6 28 9 75 -28 75s-54 -47 -60 -75s-9 -75 28 -75s54 47 60 75z" />
    <glyph glyph-name="questiondown" unicode="&#xbf;" 
d="M364 447h69l-4 -17c-17 -72 -25 -87 -92 -136c-50 -36 -102 -71 -115 -132c-13 -62 13 -108 78 -108c80 0 130 69 157 138l62 -17c-44 -107 -112 -184 -230 -184c-103 0 -159 65 -137 169c16 77 70 124 135 171c49 36 62 44 74 102zM367 519l32 148h92l-32 -148h-92z" />
    <glyph glyph-name="grave" unicode="`" 
d="M384 695l155 -101l-35 -44l-170 82z" />
    <glyph glyph-name="acute" unicode="&#xb4;" 
d="M525 695l22 -63l-204 -82l-17 44z" />
    <glyph glyph-name="circumflex" unicode="&#x2c6;" 
d="M430 613l-140 -62l-16 36l172 102l130 -102l-31 -36z" />
    <glyph glyph-name="tilde" unicode="&#x2dc;" 
d="M548 680l47 -16c-23 -46 -53 -105 -112 -105c-31 0 -46 13 -66 31c-9 9 -27 26 -43 26c-30 0 -48 -40 -61 -62l-45 19c27 46 61 103 119 103c27 0 43 -15 59 -30c12 -11 28 -28 46 -28c28 0 45 42 56 62z" />
    <glyph glyph-name="macron" unicode="&#xaf;" 
d="M569 586h-287l12 60h287z" />
    <glyph glyph-name="breve" unicode="&#x2d8;" 
d="M537 682h60c-19 -84 -90 -124 -171 -124c-87 0 -150 28 -133 124h60c-14 -56 25 -74 76 -74c69 0 99 30 108 74z" />
    <glyph glyph-name="dotaccent" unicode="&#x2d9;" 
d="M445 680c33 0 40 -35 34 -63s-28 -63 -61 -63s-41 35 -35 63c6 29 29 63 62 63z" />
    <glyph glyph-name="dieresis" unicode="&#xa8;" 
d="M353 680c33 0 40 -35 34 -63s-28 -63 -61 -63s-41 35 -35 63c6 29 29 63 62 63zM537 680c33 0 40 -35 34 -63s-28 -63 -61 -63s-41 35 -35 63c6 29 29 63 62 63z" />
    <glyph glyph-name="ring" unicode="&#x2da;" 
d="M445 681c48 0 78 -39 68 -86c-10 -48 -57 -87 -105 -87s-79 39 -69 87c10 47 58 86 106 86zM436 641c-26 0 -52 -21 -57 -46c-6 -26 11 -47 37 -47s51 21 57 47c5 25 -11 46 -37 46z" />
    <glyph glyph-name="cedilla" unicode="&#xb8;" 
d="M349 13l-30 -55c42 -2 75 -24 65 -71c-10 -48 -66 -77 -109 -77c-34 0 -68 15 -96 29l31 51c20 -11 43 -20 69 -20c13 0 32 4 36 20c7 33 -59 30 -79 32l53 91h60z" />
    <glyph glyph-name="hungarumlaut" unicode="&#x2dd;" 
d="M410 683l29 -58l-204 -82l-22 41zM615 683l29 -58l-204 -82l-22 41z" />
    <glyph glyph-name="ogonek" unicode="&#x2db;" 
d="M341 -96l-13 -59c-37 -13 -64 -22 -101 -22c-59 0 -114 26 -100 93c11 52 60 87 109 107h98c-34 -22 -127 -62 -136 -105c-7 -30 12 -40 39 -40c34 0 70 10 104 26z" />
    <glyph glyph-name="caron" unicode="&#x2c7;" 
d="M319 687l114 -62l141 62l15 -36l-172 -102l-130 102z" />
    <glyph glyph-name="emdash" unicode="&#x2014;" 
d="M49 229l13 63h600l-13 -63h-600z" />
    <glyph glyph-name="AE" unicode="&#xc6;" 
d="M341 266l72 341h-27l-152 -341h107zM284 0l44 206h-120l-100 -219l-64 18l309 662h297l-13 -60h-157l-47 -220h145l-12 -60h-145l-57 -267h157l-13 -60h-224z" />
    <glyph glyph-name="ordfeminine" unicode="&#xaa;" 
d="M442 428h-102l-51 -90l-59 20l177 309h70l45 -309l-67 -20zM436 483l-13 97l-53 -97h66zM190 236l12 55h320l-12 -55h-320z" />
    <glyph glyph-name="Lslash" unicode="&#x141;" 
d="M248 304l-108 -37l14 66l108 38l63 296h67l-58 -271l107 38l-14 -67l-107 -38l-57 -269h274l-13 -60h-341z" />
    <glyph glyph-name="Oslash" unicode="&#xd8;" 
d="M242 212l268 353c-11 31 -37 48 -73 48c-58 0 -121 -28 -171 -267c-10 -45 -20 -88 -24 -134zM516 487l-275 -363v-2c8 -41 30 -68 77 -68c46 0 118 12 172 268c12 54 21 108 27 163l1 2h-2zM190 56l-46 -59l-45 26l73 97c-6 68 6 143 21 214c20 92 69 342 258 342
c44 0 82 -19 105 -50l44 58l47 -27l-67 -88c13 -73 0 -156 -17 -235c-25 -116 -81 -343 -258 -343c-49 0 -94 26 -115 65z" />
    <glyph glyph-name="OE" unicode="&#x152;" 
d="M457 667h216l-13 -60h-154l-47 -220h142l-12 -60h-142l-57 -267h154l-13 -60h-220c-8 -3 -17 -5 -26 -7c-9 -1 -18 -2 -27 -2c-198 0 -134 271 -118 344c16 77 70 341 259 341c21 0 41 0 58 -9zM326 73l111 524c-12 13 -32 16 -52 16c-63 0 -123 -32 -175 -278
c-31 -145 -49 -281 56 -281c19 0 42 7 60 19z" />
    <glyph glyph-name="ordmasculine" unicode="&#xba;" 
d="M190 236l12 55h320l-12 -55h-320zM444 676c94 0 113 -82 95 -165c-17 -82 -71 -164 -165 -164s-111 82 -94 164c18 83 70 165 164 165zM432 621c-55 0 -76 -68 -85 -110s-17 -109 38 -109s78 67 87 109c9 43 15 110 -40 110z" />
    <glyph glyph-name="ae" unicode="&#xe6;" 
d="M334 202l55 259h-42l-131 -259h118zM291 0l30 142h-137l-81 -155l-61 24l273 510h332l-13 -60h-178l-33 -156h145l-13 -60h-145l-39 -185h178l-13 -60h-245z" />
    <glyph glyph-name="dotlessi" unicode="&#x131;" 
d="M193 0l13 60h73l85 401h-73l13 60h214l-13 -60h-74l-85 -401h74l-13 -60h-214z" />
    <glyph glyph-name="lslash" unicode="&#x142;" 
d="M348 521l-39 -183l187 65l-15 -67l-186 -65l-45 -211h273l-13 -60h-340l52 246l-94 -33l15 67l94 33l44 208h67z" />
    <glyph glyph-name="oslash" unicode="&#xf8;" 
d="M230 141l229 301c-13 17 -36 25 -60 25c-101 0 -143 -130 -159 -207c-9 -40 -13 -81 -10 -119zM480 383l-230 -303c15 -17 36 -26 61 -26c101 0 143 130 159 206c9 42 14 84 10 123zM502 500l29 38l44 -28l-40 -55c25 -56 19 -128 5 -195c-43 -197 -148 -269 -242 -269
c-35 0 -68 10 -91 32l-29 -39l-46 27l43 57c-25 54 -18 129 -5 192c43 199 149 270 243 270c34 0 67 -10 89 -30z" />
    <glyph glyph-name="oe" unicode="&#x153;" 
d="M414 521h238l-13 -60h-178l-33 -156h146l-13 -60h-146l-39 -185h178l-13 -60h-238c-8 -3 -17 -5 -27 -7c-9 -1 -18 -2 -27 -2c-151 0 -160 145 -134 269c45 210 160 270 243 270c20 0 39 -2 56 -9zM310 68l82 385c-13 9 -29 14 -48 14c-101 0 -142 -130 -159 -207
c-16 -76 -30 -206 71 -206c19 0 38 5 54 14z" />
    <glyph glyph-name="germandbls" unicode="&#xdf;" 
d="M330 248l12 60c46 6 75 45 84 87c9 44 -2 72 -49 72c-62 0 -75 -46 -85 -95l-79 -372h-67l89 419c9 40 66 111 163 111c77 0 116 -52 99 -128c-9 -43 -35 -89 -78 -111c59 -17 80 -78 67 -140c-23 -111 -108 -151 -167 -151h-61l13 60h46c54 0 86 29 98 88
c15 69 -16 102 -85 100z" />
    <glyph glyph-name="onesuperior" unicode="&#xb9;" 
d="M362 382l48 227l-66 -21l-8 45l150 47l-64 -298h58l-10 -50h-192l10 50h74z" />
    <glyph glyph-name="logicalnot" unicode="&#xac;" 
d="M590 173v232h-488v44h532v-276h-44z" />
    <glyph glyph-name="mu" unicode="&#xb5;" 
d="M402 0l9 44c-29 -32 -71 -53 -111 -53c-41 0 -74 17 -92 49l-54 -251h-67l156 732h67l-73 -344c-21 -101 44 -123 71 -123c76 0 123 82 136 144l69 323h67l-111 -521h-67z" />
    <glyph glyph-name="trademark" unicode="&#x2122;" 
d="M725 676l-60 -282h-40l51 242h-2l-147 -242h-26l-42 242h-2l-51 -242h-40l60 282h68l38 -199l127 199h66zM392 676l-9 -40h-94l-51 -242h-40l51 242h-95l9 40h229z" />
    <glyph glyph-name="Eth" unicode="&#xd0;" 
d="M302 607h-54l13 60h176c134 0 200 -59 142 -334c-31 -147 -79 -333 -282 -333h-178l13 60h54l51 243h-54l13 60h54zM369 607l-52 -244h79l-13 -60h-79l-51 -243h55c81 0 147 21 201 273c54 254 -10 274 -69 274h-71z" />
    <glyph glyph-name="onehalf" unicode="&#xbd;" 
d="M204 382l48 227l-66 -21l-8 45l150 47l-64 -298h58l-10 -50h-192l10 50h74zM609 680l46 -29l-518 -664l-47 26zM334 0l9 42l164 152c19 18 38 32 43 57c6 28 -11 43 -37 43c-41 0 -63 -29 -74 -65l-56 7c22 67 71 108 140 108c56 0 101 -30 88 -91
c-8 -37 -35 -64 -64 -90l-124 -113h144l-11 -50h-222z" />
    <glyph glyph-name="plusminus" unicode="&#xb1;" 
d="M634 429v-44h-244v-244h-44v244h-244v44h244v244h44v-244h244zM634 91v-44h-532v44h532z" />
    <glyph glyph-name="Thorn" unicode="&#xde;" 
d="M261 149l-32 -149h-67l142 667h67l-32 -148h78c118 0 171 -63 147 -177c-27 -124 -111 -193 -203 -193h-100zM327 459l-54 -250h94c62 0 109 49 127 133c17 82 -18 117 -90 117h-77z" />
    <glyph glyph-name="onequarter" unicode="&#xbc;" 
d="M493 78h-143l114 267l55 -10l-90 -207h74l35 162h60l-35 -162h28l-10 -50h-28l-17 -78h-60zM197 382l48 227l-66 -21l-8 45l150 47l-64 -298h58l-10 -50h-192l10 50h74zM605 680l46 -29l-518 -664l-47 26z" />
    <glyph glyph-name="divide" unicode="&#xf7;" 
d="M634 382v-44h-532v44h532zM411 205c0 -24 -19 -43 -43 -43s-43 19 -43 43s19 43 43 43s43 -19 43 -43zM411 515c0 -24 -19 -43 -43 -43s-43 19 -43 43s19 43 43 43s43 -19 43 -43z" />
    <glyph glyph-name="brokenbar" unicode="&#xa6;" 
d="M346 792h44v-360h-44v360zM346 72h44v-360h-44v360z" />
    <glyph glyph-name="degree" unicode="&#xb0;" 
d="M175 549c0 107 86 193 193 193s193 -86 193 -193c0 -106 -86 -193 -193 -193s-193 87 -193 193zM217 549c0 -83 68 -151 151 -151s151 68 151 151s-68 151 -151 151s-151 -68 -151 -151z" />
    <glyph glyph-name="thorn" unicode="&#xfe;" 
d="M253 112l-24 -112h-67l111 521h67l-24 -112h95c121 0 154 -66 138 -142c-24 -110 -111 -155 -184 -155h-112zM266 172h92c66 0 107 30 120 90c15 71 -28 87 -83 87h-92z" />
    <glyph glyph-name="threequarters" unicode="&#xbe;" 
d="M494 78h-143l114 267l55 -10l-90 -207h74l35 162h60l-35 -162h28l-10 -50h-28l-17 -78h-60zM606 680l46 -29l-518 -664l-47 26zM401 676l-9 -42l-103 -79c47 -5 84 -37 73 -89c-9 -41 -65 -144 -250 -133l10 50c96 -1 167 21 180 82c8 37 -30 46 -60 46
c-18 0 -36 -3 -55 -6l9 39l109 82h-136l11 50h221z" />
    <glyph glyph-name="twosuperior" unicode="&#xb2;" 
d="M260 332l8 42l165 152c19 17 38 32 43 57c6 28 -11 43 -37 43c-41 0 -63 -29 -75 -65l-55 7c22 67 71 108 140 108c56 0 100 -30 87 -91c-8 -37 -35 -63 -64 -90l-124 -113h144l-10 -50h-222z" />
    <glyph glyph-name="registered" unicode="&#xae;" 
d="M299 -9c-167 0 -269 152 -228 341c40 188 206 340 373 340c166 0 267 -152 227 -340c-41 -189 -206 -341 -372 -341zM310 41c127 0 275 121 311 291c37 172 -71 290 -188 290c-121 0 -276 -118 -312 -290c-34 -158 52 -291 189 -291zM416 317l64 -176h-59l-58 176h-56
l-37 -176h-50l81 381h145c78 0 111 -31 96 -101c-15 -74 -66 -102 -126 -104zM340 472l-22 -105h91c41 0 74 11 84 56c10 46 -25 49 -67 49h-86z" />
    <glyph glyph-name="minus" unicode="&#x2212;" 
d="M634 382v-44h-532v44h532z" />
    <glyph glyph-name="eth" unicode="&#xf0;" 
d="M235 290l36 171h-54l13 60h174c148 0 202 -61 161 -254c-35 -163 -85 -267 -272 -267h-174l13 60h54l36 170h-54l13 60h54zM302 290h79l-13 -60h-79l-36 -170h71c88 0 137 50 169 200c34 160 -3 201 -86 201h-69z" />
    <glyph glyph-name="multiply" unicode="&#xd7;" 
d="M634 126l-31 -32l-235 235l-235 -235l-31 32l235 234l-235 235l31 31l235 -235l235 235l31 -31l-235 -235z" />
    <glyph glyph-name="threesuperior" unicode="&#xb3;" 
d="M552 676l-9 -42l-103 -79c47 -5 84 -37 73 -89c-9 -41 -65 -145 -250 -134l10 50c96 -1 167 22 180 83c8 37 -30 46 -60 46c-18 0 -36 -3 -55 -6l9 39l109 82h-136l11 50h221z" />
    <glyph glyph-name="copyright" unicode="&#xa9;" 
d="M445 676c165 0 263 -152 223 -342s-204 -343 -369 -343s-265 153 -225 343s206 342 371 342zM434 626c-120 0 -271 -108 -310 -292c-34 -160 54 -293 186 -293c108 0 270 113 308 293c33 154 -50 292 -184 292zM457 272h50c-25 -80 -95 -134 -164 -134
c-98 0 -146 88 -122 199c24 113 105 197 205 197c71 0 115 -48 109 -129h-50c3 53 -22 79 -69 79c-78 0 -127 -61 -145 -146c-17 -81 7 -150 83 -150c47 0 85 28 103 84z" />
    <glyph glyph-name="Aacute" unicode="&#xc1;" 
d="M435 206h-182l-99 -219l-62 18l310 662h80l28 -662l-70 -18zM432 266l-8 312h-2l-140 -312h150zM545 841l22 -63l-204 -82l-17 44z" />
    <glyph glyph-name="Acircumflex" unicode="&#xc2;" 
d="M435 206h-182l-99 -219l-62 18l310 662h80l28 -662l-70 -18zM432 266l-8 312h-2l-140 -312h150zM450 759l-140 -62l-16 36l172 102l130 -102l-31 -36z" />
    <glyph glyph-name="Adieresis" unicode="&#xc4;" 
d="M435 206h-182l-99 -219l-62 18l310 662h80l28 -662l-70 -18zM432 266l-8 312h-2l-140 -312h150zM373 826c33 0 40 -35 34 -63s-28 -63 -61 -63s-41 35 -35 63c6 29 29 63 62 63zM557 826c33 0 40 -35 34 -63s-28 -63 -61 -63s-41 35 -35 63c6 29 29 63 62 63z" />
    <glyph glyph-name="Agrave" unicode="&#xc0;" 
d="M435 206h-182l-99 -219l-62 18l310 662h80l28 -662l-70 -18zM432 266l-8 312h-2l-140 -312h150zM404 841l155 -101l-35 -44l-170 82z" />
    <glyph glyph-name="Aring" unicode="&#xc5;" 
d="M435 206h-182l-99 -219l-62 18l310 662h80l28 -662l-70 -18zM432 266l-8 312h-2l-140 -312h150zM475 847c48 0 78 -39 68 -86c-10 -48 -57 -87 -105 -87s-79 39 -69 87c10 47 58 86 106 86zM466 807c-26 0 -52 -21 -57 -46c-6 -26 11 -47 37 -47s51 21 57 47
c5 25 -11 46 -37 46z" />
    <glyph glyph-name="Atilde" unicode="&#xc3;" 
d="M435 206h-182l-99 -219l-62 18l310 662h80l28 -662l-70 -18zM432 266l-8 312h-2l-140 -312h150zM568 826l47 -16c-23 -46 -53 -105 -112 -105c-31 0 -46 13 -66 31c-9 9 -27 26 -43 26c-30 0 -48 -40 -61 -62l-45 19c27 46 61 103 119 103c27 0 43 -15 59 -30
c12 -11 28 -28 46 -28c28 0 45 42 56 62z" />
    <glyph glyph-name="Ccedilla" unicode="&#xc7;" 
d="M461 138l47 -38c-46 -56 -105 -98 -170 -107l-19 -35c42 -2 75 -24 65 -71c-10 -48 -66 -77 -109 -77c-34 0 -68 15 -96 29l31 51c20 -11 43 -20 69 -20c13 0 32 4 36 20c7 33 -59 30 -79 32l42 72c-137 26 -119 216 -93 339c28 133 99 343 273 343
c76 0 118 -44 140 -108l-64 -34c-13 42 -39 79 -90 79c-122 0 -170 -192 -189 -280c-18 -87 -52 -279 70 -279c52 0 103 43 136 84z" />
    <glyph glyph-name="Eacute" unicode="&#xc9;" 
d="M157 0l142 667h325l-13 -60h-258l-47 -220h213l-12 -60h-213l-57 -267h258l-13 -60h-325zM555 841l22 -63l-204 -82l-17 44z" />
    <glyph glyph-name="Ecircumflex" unicode="&#xca;" 
d="M157 0l142 667h325l-13 -60h-258l-47 -220h213l-12 -60h-213l-57 -267h258l-13 -60h-325zM460 759l-140 -62l-16 36l172 102l130 -102l-31 -36z" />
    <glyph glyph-name="Edieresis" unicode="&#xcb;" 
d="M157 0l142 667h325l-13 -60h-258l-47 -220h213l-12 -60h-213l-57 -267h258l-13 -60h-325zM383 826c33 0 40 -35 34 -63s-28 -63 -61 -63s-41 35 -35 63c6 29 29 63 62 63zM567 826c33 0 40 -35 34 -63s-28 -63 -61 -63s-41 35 -35 63c6 29 29 63 62 63z" />
    <glyph glyph-name="Egrave" unicode="&#xc8;" 
d="M157 0l142 667h325l-13 -60h-258l-47 -220h213l-12 -60h-213l-57 -267h258l-13 -60h-325zM414 841l155 -101l-35 -44l-170 82z" />
    <glyph glyph-name="Iacute" unicode="&#xcd;" 
d="M279 60l116 547h-90l13 60h248l-13 -60h-91l-116 -547h91l-13 -60h-248l13 60h90zM545 841l22 -63l-204 -82l-17 44z" />
    <glyph glyph-name="Icircumflex" unicode="&#xce;" 
d="M279 60l116 547h-90l13 60h248l-13 -60h-91l-116 -547h91l-13 -60h-248l13 60h90zM450 759l-140 -62l-16 36l172 102l130 -102l-31 -36z" />
    <glyph glyph-name="Idieresis" unicode="&#xcf;" 
d="M279 60l116 547h-90l13 60h248l-13 -60h-91l-116 -547h91l-13 -60h-248l13 60h90zM373 826c33 0 40 -35 34 -63s-28 -63 -61 -63s-41 35 -35 63c6 29 29 63 62 63zM557 826c33 0 40 -35 34 -63s-28 -63 -61 -63s-41 35 -35 63c6 29 29 63 62 63z" />
    <glyph glyph-name="Igrave" unicode="&#xcc;" 
d="M279 60l116 547h-90l13 60h248l-13 -60h-91l-116 -547h91l-13 -60h-248l13 60h90zM404 841l155 -101l-35 -44l-170 82z" />
    <glyph glyph-name="Ntilde" unicode="&#xd1;" 
d="M126 0l142 667h84l79 -561l2 2l29 149l87 410h67l-142 -667h-84l-79 562l-2 -2l-29 -151l-87 -409h-67zM568 826l47 -16c-23 -46 -53 -105 -112 -105c-31 0 -46 13 -66 31c-9 9 -27 26 -43 26c-30 0 -48 -40 -61 -62l-45 19c27 46 61 103 119 103c27 0 43 -15 59 -30
c12 -11 28 -28 46 -28c28 0 45 42 56 62z" />
    <glyph glyph-name="Oacute" unicode="&#xd3;" 
d="M444 676c188 0 131 -254 112 -342c-18 -84 -70 -343 -258 -343c-190 0 -130 257 -112 343c23 110 80 342 258 342zM430 613c-118 0 -153 -181 -174 -279c-38 -180 -39 -280 55 -280c116 0 150 164 175 280c27 126 62 279 -56 279zM545 841l22 -63l-204 -82l-17 44z" />
    <glyph glyph-name="Ocircumflex" unicode="&#xd4;" 
d="M444 676c188 0 131 -254 112 -342c-18 -84 -70 -343 -258 -343c-190 0 -130 257 -112 343c23 110 80 342 258 342zM430 613c-118 0 -153 -181 -174 -279c-38 -180 -39 -280 55 -280c116 0 150 164 175 280c27 126 62 279 -56 279zM450 759l-140 -62l-16 36l172 102
l130 -102l-31 -36z" />
    <glyph glyph-name="Odieresis" unicode="&#xd6;" 
d="M444 676c188 0 131 -254 112 -342c-18 -84 -70 -343 -258 -343c-190 0 -130 257 -112 343c23 110 80 342 258 342zM430 613c-118 0 -153 -181 -174 -279c-38 -180 -39 -280 55 -280c116 0 150 164 175 280c27 126 62 279 -56 279zM373 826c33 0 40 -35 34 -63
s-28 -63 -61 -63s-41 35 -35 63c6 29 29 63 62 63zM557 826c33 0 40 -35 34 -63s-28 -63 -61 -63s-41 35 -35 63c6 29 29 63 62 63z" />
    <glyph glyph-name="Ograve" unicode="&#xd2;" 
d="M444 676c188 0 131 -254 112 -342c-18 -84 -70 -343 -258 -343c-190 0 -130 257 -112 343c23 110 80 342 258 342zM430 613c-118 0 -153 -181 -174 -279c-38 -180 -39 -280 55 -280c116 0 150 164 175 280c27 126 62 279 -56 279zM404 841l155 -101l-35 -44l-170 82z" />
    <glyph glyph-name="Otilde" unicode="&#xd5;" 
d="M444 676c188 0 131 -254 112 -342c-18 -84 -70 -343 -258 -343c-190 0 -130 257 -112 343c23 110 80 342 258 342zM430 613c-118 0 -153 -181 -174 -279c-38 -180 -39 -280 55 -280c116 0 150 164 175 280c27 126 62 279 -56 279zM568 826l47 -16
c-23 -46 -53 -105 -112 -105c-31 0 -46 13 -66 31c-9 9 -27 26 -43 26c-30 0 -48 -40 -61 -62l-45 19c27 46 61 103 119 103c27 0 43 -15 59 -30c12 -11 28 -28 46 -28c28 0 45 42 56 62z" />
    <glyph glyph-name="Scaron" unicode="&#x160;" 
d="M440 173c18 88 -32 118 -93 158c-67 45 -111 77 -90 175c19 90 96 170 191 170c94 0 125 -67 125 -151l-68 -10c0 49 -14 98 -71 98c-63 0 -98 -51 -110 -107c-11 -54 -5 -71 87 -134c71 -49 119 -90 97 -193c-22 -105 -96 -188 -208 -188c-118 0 -144 78 -132 184l69 9
c-7 -74 -3 -130 78 -130c58 0 108 39 125 119zM339 833l114 -62l141 62l15 -36l-172 -102l-130 102z" />
    <glyph glyph-name="Uacute" unicode="&#xda;" 
d="M279 667h67l-103 -485c-14 -66 -15 -128 68 -128s111 63 125 128l103 485h67l-108 -505c-22 -104 -101 -171 -200 -171c-101 0 -148 69 -127 168zM545 841l22 -63l-204 -82l-17 44z" />
    <glyph glyph-name="Ucircumflex" unicode="&#xdb;" 
d="M279 667h67l-103 -485c-14 -66 -15 -128 68 -128s111 63 125 128l103 485h67l-108 -505c-22 -104 -101 -171 -200 -171c-101 0 -148 69 -127 168zM450 759l-140 -62l-16 36l172 102l130 -102l-31 -36z" />
    <glyph glyph-name="Udieresis" unicode="&#xdc;" 
d="M279 667h67l-103 -485c-14 -66 -15 -128 68 -128s111 63 125 128l103 485h67l-108 -505c-22 -104 -101 -171 -200 -171c-101 0 -148 69 -127 168zM373 826c33 0 40 -35 34 -63s-28 -63 -61 -63s-41 35 -35 63c6 29 29 63 62 63zM557 826c33 0 40 -35 34 -63
s-28 -63 -61 -63s-41 35 -35 63c6 29 29 63 62 63z" />
    <glyph glyph-name="Ugrave" unicode="&#xd9;" 
d="M279 667h67l-103 -485c-14 -66 -15 -128 68 -128s111 63 125 128l103 485h67l-108 -505c-22 -104 -101 -171 -200 -171c-101 0 -148 69 -127 168zM404 841l155 -101l-35 -44l-170 82z" />
    <glyph glyph-name="Yacute" unicode="&#xdd;" 
d="M372 341l217 339l56 -25l-256 -392l-56 -263h-67l56 263l-89 392l68 25zM545 841l22 -63l-204 -82l-17 44z" />
    <glyph glyph-name="Ydieresis" unicode="&#x178;" 
d="M372 341l217 339l56 -25l-256 -392l-56 -263h-67l56 263l-89 392l68 25zM373 826c33 0 40 -35 34 -63s-28 -63 -61 -63s-41 35 -35 63c6 29 29 63 62 63zM557 826c33 0 40 -35 34 -63s-28 -63 -61 -63s-41 35 -35 63c6 29 29 63 62 63z" />
    <glyph glyph-name="Zcaron" unicode="&#x17d;" 
d="M104 0l412 607h-254l13 60h355l-411 -607h290l-13 -60h-392zM339 833l114 -62l141 62l15 -36l-172 -102l-130 102z" />
    <glyph glyph-name="aacute" unicode="&#xe1;" 
d="M423 142h-185l-82 -155l-61 24l273 510h86l55 -510l-71 -24zM417 202l-23 241l-125 -241h148zM525 715l22 -63l-204 -82l-17 44z" />
    <glyph glyph-name="acircumflex" unicode="&#xe2;" 
d="M423 142h-185l-82 -155l-61 24l273 510h86l55 -510l-71 -24zM417 202l-23 241l-125 -241h148zM430 633l-140 -62l-16 36l172 102l130 -102l-31 -36z" />
    <glyph glyph-name="adieresis" unicode="&#xe4;" 
d="M423 142h-185l-82 -155l-61 24l273 510h86l55 -510l-71 -24zM417 202l-23 241l-125 -241h148zM353 700c33 0 40 -35 34 -63s-28 -63 -61 -63s-41 35 -35 63c6 29 29 63 62 63zM537 700c33 0 40 -35 34 -63s-28 -63 -61 -63s-41 35 -35 63c6 29 29 63 62 63z" />
    <glyph glyph-name="agrave" unicode="&#xe0;" 
d="M423 142h-185l-82 -155l-61 24l273 510h86l55 -510l-71 -24zM417 202l-23 241l-125 -241h148zM384 715l155 -101l-35 -44l-170 82z" />
    <glyph glyph-name="aring" unicode="&#xe5;" 
d="M423 142h-185l-82 -155l-61 24l273 510h86l55 -510l-71 -24zM417 202l-23 241l-125 -241h148zM445 701c48 0 78 -39 68 -86c-10 -48 -57 -87 -105 -87s-79 39 -69 87c10 47 58 86 106 86zM436 661c-26 0 -52 -21 -57 -46c-6 -26 11 -47 37 -47s51 21 57 47
c5 25 -11 46 -37 46z" />
    <glyph glyph-name="atilde" unicode="&#xe3;" 
d="M423 142h-185l-82 -155l-61 24l273 510h86l55 -510l-71 -24zM417 202l-23 241l-125 -241h148zM548 700l47 -16c-23 -46 -53 -105 -112 -105c-31 0 -46 13 -66 31c-9 9 -27 26 -43 26c-30 0 -48 -40 -61 -62l-45 19c27 46 61 103 119 103c27 0 43 -15 59 -30
c12 -11 28 -28 46 -28c28 0 45 42 56 62z" />
    <glyph glyph-name="ccedilla" unicode="&#xe7;" 
d="M461 138l47 -38c-50 -59 -102 -99 -170 -107l-19 -35c42 -2 75 -24 65 -71c-10 -48 -66 -77 -109 -77c-34 0 -68 15 -96 29l31 51c20 -11 43 -20 69 -20c13 0 32 4 36 20c7 33 -59 30 -79 32l42 72c-121 20 -134 147 -109 266c44 208 168 270 252 270
c81 0 119 -42 141 -111l-68 -31c-13 42 -35 79 -86 79c-104 0 -152 -126 -169 -206c-17 -81 -25 -207 81 -207c61 0 100 37 141 84z" />
    <glyph glyph-name="eacute" unicode="&#xe9;" 
d="M157 0l111 521h325l-13 -60h-258l-33 -156h213l-13 -60h-213l-39 -185h258l-13 -60h-325zM525 715l22 -63l-204 -82l-17 44z" />
    <glyph glyph-name="ecircumflex" unicode="&#xea;" 
d="M157 0l111 521h325l-13 -60h-258l-33 -156h213l-13 -60h-213l-39 -185h258l-13 -60h-325zM430 633l-140 -62l-16 36l172 102l130 -102l-31 -36z" />
    <glyph glyph-name="edieresis" unicode="&#xeb;" 
d="M157 0l111 521h325l-13 -60h-258l-33 -156h213l-13 -60h-213l-39 -185h258l-13 -60h-325zM353 700c33 0 40 -35 34 -63s-28 -63 -61 -63s-41 35 -35 63c6 29 29 63 62 63zM537 700c33 0 40 -35 34 -63s-28 -63 -61 -63s-41 35 -35 63c6 29 29 63 62 63z" />
    <glyph glyph-name="egrave" unicode="&#xe8;" 
d="M157 0l111 521h325l-13 -60h-258l-33 -156h213l-13 -60h-213l-39 -185h258l-13 -60h-325zM384 715l155 -101l-35 -44l-170 82z" />
    <glyph glyph-name="iacute" unicode="&#xed;" 
d="M193 0l13 60h73l85 401h-73l13 60h214l-13 -60h-74l-85 -401h74l-13 -60h-214zM525 715l22 -63l-204 -82l-17 44z" />
    <glyph glyph-name="icircumflex" unicode="&#xee;" 
d="M193 0l13 60h73l85 401h-73l13 60h214l-13 -60h-74l-85 -401h74l-13 -60h-214zM430 633l-140 -62l-16 36l172 102l130 -102l-31 -36z" />
    <glyph glyph-name="idieresis" unicode="&#xef;" 
d="M193 0l13 60h73l85 401h-73l13 60h214l-13 -60h-74l-85 -401h74l-13 -60h-214zM353 700c33 0 40 -35 34 -63s-28 -63 -61 -63s-41 35 -35 63c6 29 29 63 62 63zM537 700c33 0 40 -35 34 -63s-28 -63 -61 -63s-41 35 -35 63c6 29 29 63 62 63z" />
    <glyph glyph-name="igrave" unicode="&#xec;" 
d="M193 0l13 60h73l85 401h-73l13 60h214l-13 -60h-74l-85 -401h74l-13 -60h-214zM384 715l155 -101l-35 -44l-170 82z" />
    <glyph glyph-name="ntilde" unicode="&#xf1;" 
d="M126 0l111 521h83l108 -439l3 2l23 135l64 302h67l-111 -521h-83l-109 439l-2 -2l-23 -136l-64 -301h-67zM548 700l47 -16c-23 -46 -53 -105 -112 -105c-31 0 -46 13 -66 31c-9 9 -27 26 -43 26c-30 0 -48 -40 -61 -62l-45 19c27 46 61 103 119 103c27 0 43 -15 59 -30
c12 -11 28 -28 46 -28c28 0 45 42 56 62z" />
    <glyph glyph-name="oacute" unicode="&#xf3;" 
d="M413 530c83 0 172 -60 127 -270c-9 -42 -60 -269 -242 -269c-84 0 -172 60 -128 269c44 208 157 270 243 270zM399 467c-101 0 -142 -130 -159 -207c-16 -76 -30 -206 71 -206s143 130 159 206c17 77 30 207 -71 207zM525 715l22 -63l-204 -82l-17 44z" />
    <glyph glyph-name="ocircumflex" unicode="&#xf4;" 
d="M413 530c83 0 172 -60 127 -270c-9 -42 -60 -269 -242 -269c-84 0 -172 60 -128 269c44 208 157 270 243 270zM399 467c-101 0 -142 -130 -159 -207c-16 -76 -30 -206 71 -206s143 130 159 206c17 77 30 207 -71 207zM430 633l-140 -62l-16 36l172 102l130 -102l-31 -36z
" />
    <glyph glyph-name="odieresis" unicode="&#xf6;" 
d="M413 530c83 0 172 -60 127 -270c-9 -42 -60 -269 -242 -269c-84 0 -172 60 -128 269c44 208 157 270 243 270zM399 467c-101 0 -142 -130 -159 -207c-16 -76 -30 -206 71 -206s143 130 159 206c17 77 30 207 -71 207zM353 700c33 0 40 -35 34 -63s-28 -63 -61 -63
s-41 35 -35 63c6 29 29 63 62 63zM537 700c33 0 40 -35 34 -63s-28 -63 -61 -63s-41 35 -35 63c6 29 29 63 62 63z" />
    <glyph glyph-name="ograve" unicode="&#xf2;" 
d="M413 530c83 0 172 -60 127 -270c-9 -42 -60 -269 -242 -269c-84 0 -172 60 -128 269c44 208 157 270 243 270zM399 467c-101 0 -142 -130 -159 -207c-16 -76 -30 -206 71 -206s143 130 159 206c17 77 30 207 -71 207zM384 715l155 -101l-35 -44l-170 82z" />
    <glyph glyph-name="otilde" unicode="&#xf5;" 
d="M413 530c83 0 172 -60 127 -270c-9 -42 -60 -269 -242 -269c-84 0 -172 60 -128 269c44 208 157 270 243 270zM399 467c-101 0 -142 -130 -159 -207c-16 -76 -30 -206 71 -206s143 130 159 206c17 77 30 207 -71 207zM548 700l47 -16c-23 -46 -53 -105 -112 -105
c-31 0 -46 13 -66 31c-9 9 -27 26 -43 26c-30 0 -48 -40 -61 -62l-45 19c27 46 61 103 119 103c27 0 43 -15 59 -30c12 -11 28 -28 46 -28c28 0 45 42 56 62z" />
    <glyph glyph-name="scaron" unicode="&#x161;" 
d="M162 146l64 19c-1 -64 20 -111 90 -111c55 0 105 30 117 88c14 64 -37 80 -83 101c-70 32 -137 52 -116 150c18 88 100 137 182 137c87 0 127 -50 131 -131l-68 -19c-1 51 -21 87 -78 87c-43 0 -89 -22 -99 -69c-11 -49 16 -64 52 -81l101 -49c41 -26 58 -68 46 -122
c-21 -99 -102 -155 -198 -155c-97 0 -145 62 -141 155zM319 707l114 -62l141 62l15 -36l-172 -102l-130 102z" />
    <glyph glyph-name="uacute" unicode="&#xfa;" 
d="M248 521h67l-76 -355c-16 -76 -2 -112 67 -112c84 0 110 37 126 112l76 355h67l-83 -387c-15 -69 -79 -143 -194 -143c-113 0 -148 71 -132 147zM525 715l22 -63l-204 -82l-17 44z" />
    <glyph glyph-name="ucircumflex" unicode="&#xfb;" 
d="M248 521h67l-76 -355c-16 -76 -2 -112 67 -112c84 0 110 37 126 112l76 355h67l-83 -387c-15 -69 -79 -143 -194 -143c-113 0 -148 71 -132 147zM430 633l-140 -62l-16 36l172 102l130 -102l-31 -36z" />
    <glyph glyph-name="udieresis" unicode="&#xfc;" 
d="M248 521h67l-76 -355c-16 -76 -2 -112 67 -112c84 0 110 37 126 112l76 355h67l-83 -387c-15 -69 -79 -143 -194 -143c-113 0 -148 71 -132 147zM353 700c33 0 40 -35 34 -63s-28 -63 -61 -63s-41 35 -35 63c6 29 29 63 62 63zM537 700c33 0 40 -35 34 -63
s-28 -63 -61 -63s-41 35 -35 63c6 29 29 63 62 63z" />
    <glyph glyph-name="ugrave" unicode="&#xf9;" 
d="M248 521h67l-76 -355c-16 -76 -2 -112 67 -112c84 0 110 37 126 112l76 355h67l-83 -387c-15 -69 -79 -143 -194 -143c-113 0 -148 71 -132 147zM384 715l155 -101l-35 -44l-170 82z" />
    <glyph glyph-name="yacute" unicode="&#xfd;" 
d="M357 266l196 268l55 -33l-232 -300l-43 -201h-67l43 201l-105 300l71 33zM525 715l22 -63l-204 -82l-17 44z" />
    <glyph glyph-name="ydieresis" unicode="&#xff;" 
d="M357 266l196 268l55 -33l-232 -300l-43 -201h-67l43 201l-105 300l71 33zM353 700c33 0 40 -35 34 -63s-28 -63 -61 -63s-41 35 -35 63c6 29 29 63 62 63zM537 700c33 0 40 -35 34 -63s-28 -63 -61 -63s-41 35 -35 63c6 29 29 63 62 63z" />
    <glyph glyph-name="zcaron" unicode="&#x17e;" 
d="M104 0l371 461h-244l13 60h355l-369 -461h279l-13 -60h-392zM319 707l114 -62l141 62l15 -36l-172 -102l-130 102z" />
    <glyph glyph-name="zero.slash" unicode="&#xf638;" 
d="M512 478l-280 -371c10 -34 43 -53 80 -53c69 0 121 19 176 279c10 48 17 97 26 143zM233 193l277 369c-10 33 -43 51 -79 51c-67 0 -120 -18 -172 -267c-11 -50 -19 -101 -28 -151v-2h2zM444 676c212 0 129 -268 113 -343c-23 -107 -55 -342 -259 -342s-138 227 -113 342
c33 157 65 343 259 343z" />
    <glyph glyph-name="peseta" unicode="&#x20a7;" 
d="M437 0l57 268h-77l12 55h213l-12 -55h-76l-57 -268h-60zM197 297l-63 -297h-67l142 667h145c118 0 170 -63 146 -177c-26 -124 -111 -193 -203 -193h-100zM263 607l-53 -250h94c62 0 108 49 126 133c18 82 -18 117 -90 117h-77z" />
    <glyph glyph-name="quotereversed" unicode="&#x201b;" 
d="M358 667h92l-13 -61c-7 -35 -7 -69 22 -91l-34 -55c-54 32 -92 95 -77 162z" />
    <glyph glyph-name="revlogicalnot" unicode="&#x2310;" 
d="M144 0h-44v276h540v-44h-496v-232z" />
    <glyph glyph-name="f_i" 
d="M651 521l-13 -60h-73l-85 -401h73l-13 -60h-213l13 60h73l85 401h-243l-33 -156h152l-13 -60h-152l-52 -245h-67l111 521h450z" />
    <glyph glyph-name="f_l" 
d="M541 521l-98 -461h160l-13 -60h-227l98 461h-220l-33 -156h152l-13 -60h-152l-52 -245h-67l111 521h354z" />
    <glyph glyph-name="a.superior" 
d="M442 428h-102l-51 -90l-59 20l177 309h70l45 -309l-67 -20zM436 483l-13 97l-53 -97h66zM190 236l12 55h320l-12 -55h-320z" />
    <glyph glyph-name="n.superior" unicode="&#x207f;" 
d="M256 328l72 339h64l59 -273l1 1l12 75l42 197h50l-72 -339h-64l-59 271h-2l-12 -75l-41 -196h-50z" />
    <glyph glyph-name="o.superior" 
d="M190 236l12 55h320l-12 -55h-320zM444 676c94 0 113 -82 95 -165c-17 -82 -71 -164 -165 -164s-111 82 -94 164c18 83 70 165 164 165zM432 621c-55 0 -76 -68 -85 -110s-17 -109 38 -109s78 67 87 109c9 43 15 110 -40 110z" />
    <glyph glyph-name="one.superior" 
d="M362 382l48 227l-66 -21l-8 45l150 47l-64 -298h58l-10 -50h-192l10 50h74z" />
    <glyph glyph-name="two.superior" 
d="M260 332l8 42l165 152c19 17 38 32 43 57c6 28 -11 43 -37 43c-41 0 -63 -29 -75 -65l-55 7c22 67 71 108 140 108c56 0 100 -30 87 -91c-8 -37 -35 -63 -64 -90l-124 -113h144l-10 -50h-222z" />
    <glyph glyph-name="three.superior" 
d="M552 676l-9 -42l-103 -79c47 -5 84 -37 73 -89c-9 -41 -65 -145 -250 -134l10 50c96 -1 167 22 180 83c8 37 -30 46 -60 46c-18 0 -36 -3 -55 -6l9 39l109 82h-136l11 50h221z" />
    <glyph glyph-name="arrowup" unicode="&#x2191;" 
d="M392 524v-460h-44v460c-23 -15 -98 -49 -123 -49c-8 0 -16 5 -16 14s14 17 20 21c46 31 95 77 123 125c3 6 10 21 18 21s15 -15 18 -21c28 -48 77 -94 123 -125c6 -4 20 -12 20 -21s-8 -14 -16 -14c-25 0 -100 34 -123 49z" />
    <glyph glyph-name="arrowdown" unicode="&#x2193;" 
d="M392 656v-460c23 15 98 49 123 49c8 0 16 -5 16 -14s-14 -17 -20 -21c-46 -31 -95 -77 -123 -125c-3 -6 -10 -21 -18 -21s-15 15 -18 21c-28 48 -77 94 -123 125c-6 4 -20 12 -20 21s8 14 16 14c25 0 100 -34 123 -49v460h44z" />
    <glyph glyph-name="Gamma" unicode="&#x393;" 
d="M302 667h333l-13 -60h-266l-129 -607h-67z" />
    <glyph glyph-name="Theta" unicode="&#x398;" 
d="M298 -9c-113 0 -231 114 -182 342c50 236 221 343 328 343c115 0 231 -113 182 -343c-50 -232 -218 -342 -328 -342zM431 616c-79 0 -206 -85 -248 -283c-47 -219 66 -282 128 -282c70 0 205 79 248 282c45 213 -65 283 -128 283zM259 369h237l-12 -60h-237z" />
    <glyph glyph-name="Phi" unicode="&#x3a6;" 
d="M411 680h66l-14 -62c149 -1 196 -150 168 -283s-139 -286 -288 -286l-14 -62h-66l13 62c-147 2 -196 147 -167 282c28 133 139 287 288 287zM288 104l98 459c-113 1 -187 -138 -207 -232c-19 -93 -2 -226 109 -227zM453 563l-98 -458c113 1 186 133 206 228
c20 94 5 229 -108 230z" />
    <glyph glyph-name="alpha" unicode="&#x3b1;" 
d="M353 470c-48 0 -125 -70 -157 -219c-28 -132 10 -200 67 -200c54 0 134 90 162 223c15 69 10 196 -72 196zM495 375l84 163l60 -17l-142 -252l14 -269h-66l-2 154h-2c-40 -86 -99 -163 -194 -163c-66 0 -164 56 -121 260c44 204 168 279 239 279c91 0 126 -70 128 -155h2
z" />
    <glyph glyph-name="delta" unicode="&#x3b4;" 
d="M477 223c17 78 -7 168 -96 168s-149 -98 -165 -173c-15 -73 9 -167 93 -167c89 0 152 96 168 172zM346 607l158 -199c42 -53 60 -108 44 -184c-25 -116 -126 -233 -252 -233c-121 0 -172 118 -149 228c33 153 132 219 235 232l-102 135l17 81h293l-13 -60h-231z" />
    <glyph glyph-name="epsilon" unicode="&#x3b5;" 
d="M398 310l-13 -60c-88 3 -182 -54 -195 -113c-7 -35 24 -86 127 -86c77 0 131 39 171 75l38 -45c-62 -57 -128 -90 -224 -90c-124 0 -200 63 -181 152c15 69 83 119 178 140c-61 21 -102 62 -90 117c15 71 108 130 209 130c62 0 116 -18 140 -45l-51 -41
c-16 16 -68 26 -98 26c-76 0 -120 -24 -130 -68c-10 -48 32 -91 119 -92z" />
    <glyph glyph-name="sigma" unicode="&#x3c3;" 
d="M640 530l-14 -63l-147 11c52 -52 62 -140 44 -223c-43 -203 -198 -264 -251 -264c-129 0 -170 147 -143 271c15 70 56 149 113 202c69 65 137 66 213 66h185zM455 265c17 78 3 202 -85 202c-89 0 -154 -124 -171 -203c-23 -111 11 -210 84 -210c43 0 139 54 172 211z" />
    <glyph glyph-name="tau" unicode="&#x3c4;" 
d="M603 521l-13 -60h-154l-98 -461h-67l98 461h-69c-32 0 -64 -1 -98 -12l12 56c27 8 59 16 90 16h299z" />
    <glyph glyph-name="A.sc" unicode="&#xf761;" 
d="M423 142h-185l-82 -155l-61 24l273 510h86l55 -510l-71 -24zM417 202l-23 241l-125 -241h148z" />
    <glyph glyph-name="B.sc" unicode="&#xf762;" 
d="M256 60h78c59 0 117 13 132 84c11 52 -14 94 -78 94h-94zM306 298h75c58 0 95 37 105 84c13 62 -27 79 -74 79h-71zM334 0h-212l13 60h54l85 401h-54l13 60h164c132 0 178 -50 159 -139c-9 -45 -37 -85 -82 -107c54 -18 75 -67 63 -126c-20 -94 -94 -149 -203 -149z" />
    <glyph glyph-name="C.sc" unicode="&#xf763;" 
d="M461 138l47 -38c-56 -66 -115 -109 -196 -109c-152 0 -170 140 -143 269c44 208 168 270 252 270c81 0 119 -42 141 -111l-68 -31c-13 42 -35 79 -86 79c-104 0 -152 -126 -169 -206c-17 -81 -25 -207 81 -207c61 0 100 37 141 84z" />
    <glyph glyph-name="D.sc" unicode="&#xf764;" 
d="M217 461l13 60h174c148 0 202 -61 161 -254c-35 -163 -85 -267 -272 -267h-174l13 60h54l85 401h-54zM338 461l-85 -401h71c88 0 137 50 169 200c34 160 -3 201 -86 201h-69z" />
    <glyph glyph-name="E.sc" unicode="&#xf765;" 
d="M157 0l111 521h325l-13 -60h-258l-33 -156h213l-13 -60h-213l-39 -185h258l-13 -60h-325z" />
    <glyph glyph-name="F.sc" unicode="&#xf766;" 
d="M176 0l111 521h328l-13 -60h-261l-33 -156h219l-13 -60h-219l-52 -245h-67z" />
    <glyph glyph-name="G.sc" unicode="&#xf767;" 
d="M535 278l-49 -230c-50 -34 -119 -57 -172 -57c-153 0 -167 142 -140 270c27 126 104 269 253 269c70 0 122 -41 145 -100l-64 -37c-17 42 -48 74 -99 74c-103 0 -148 -129 -165 -208c-17 -81 -26 -205 79 -205c34 0 70 9 103 27l29 137h-125l13 60h192z" />
    <glyph glyph-name="H.sc" unicode="&#xf768;" 
d="M130 0l111 521h67l-46 -216h206l46 216h67l-111 -521h-67l52 245h-206l-52 -245h-67z" />
    <glyph glyph-name="I.sc" unicode="&#xf769;" 
d="M193 0l13 60h73l85 401h-73l13 60h214l-13 -60h-74l-85 -401h74l-13 -60h-214z" />
    <glyph glyph-name="J.sc" unicode="&#xf76a;" 
d="M150 194h67c-25 -102 -5 -140 64 -140c68 0 111 41 124 104l77 363h67l-80 -376c-16 -74 -85 -154 -201 -154c-112 0 -147 64 -118 203z" />
    <glyph glyph-name="K.sc" unicode="&#xf76b;" 
d="M340 521l-47 -222h25l229 235l42 -40l-220 -219l151 -245l-60 -43l-156 257h-23l-52 -244h-67l111 521h67z" />
    <glyph glyph-name="L.sc" unicode="&#xf76c;" 
d="M170 0l111 521h67l-98 -461h273l-13 -60h-340z" />
    <glyph glyph-name="M.sc" unicode="&#xf76d;" 
d="M331 147l-58 275h-2l-103 -422h-71l132 521h88l46 -226l142 226h88l-90 -521h-71l77 422h-2z" />
    <glyph glyph-name="N.sc" unicode="&#xf76e;" 
d="M126 0l111 521h83l108 -439l3 2l23 135l64 302h67l-111 -521h-83l-109 439l-2 -2l-23 -136l-64 -301h-67z" />
    <glyph glyph-name="O.sc" unicode="&#xf76f;" 
d="M413 530c83 0 172 -60 127 -270c-9 -42 -60 -269 -242 -269c-84 0 -172 60 -128 269c44 208 157 270 243 270zM399 467c-101 0 -142 -130 -159 -207c-16 -76 -30 -206 71 -206s143 130 159 206c17 77 30 207 -71 207z" />
    <glyph glyph-name="P.sc" unicode="&#xf770;" 
d="M277 224l-48 -224h-67l111 521h162c121 0 154 -66 138 -142c-24 -110 -111 -155 -184 -155h-112zM289 284h92c66 0 107 30 120 90c15 71 -27 87 -82 87h-92z" />
    <glyph glyph-name="Q.sc" unicode="&#xf771;" 
d="M456 70l47 -54l-51 -45l-47 53c-34 -22 -70 -33 -107 -33c-83 0 -173 60 -128 269c42 199 149 270 243 270c83 0 172 -60 127 -270c-13 -61 -38 -138 -84 -190zM366 68l-70 79l51 46l68 -77c28 45 45 96 55 144c17 77 30 207 -71 207s-142 -130 -159 -207
c-16 -76 -30 -206 71 -206c18 0 38 5 55 14z" />
    <glyph glyph-name="R.sc" unicode="&#xf772;" 
d="M276 283h88c66 0 116 37 129 96c10 47 -11 82 -71 82h-108zM149 0l111 521h177c87 0 147 -41 126 -142c-14 -64 -70 -127 -137 -146l83 -211l-66 -35l-83 236h-97l-47 -223h-67z" />
    <glyph glyph-name="S.sc" unicode="&#xf773;" 
d="M162 146l64 19c-1 -64 20 -111 90 -111c55 0 105 30 117 88c14 64 -37 80 -83 101c-70 32 -137 52 -116 150c18 88 100 137 182 137c87 0 127 -50 131 -131l-68 -19c-1 51 -21 87 -78 87c-43 0 -89 -22 -99 -69c-11 -49 16 -64 52 -81l101 -49c41 -26 58 -68 46 -122
c-21 -99 -102 -155 -198 -155c-97 0 -145 62 -141 155z" />
    <glyph glyph-name="T.sc" unicode="&#xf774;" 
d="M268 0l98 461h-144l13 60h352l-13 -60h-141l-98 -461h-67z" />
    <glyph glyph-name="U.sc" unicode="&#xf775;" 
d="M248 521h67l-76 -355c-16 -76 -2 -112 67 -112c84 0 110 37 126 112l76 355h67l-83 -387c-15 -69 -79 -143 -194 -143c-113 0 -148 71 -132 147z" />
    <glyph glyph-name="V.sc" unicode="&#xf776;" 
d="M332 152l224 382l58 -24l-311 -523h-12l-89 523l70 24z" />
    <glyph glyph-name="W.sc" unicode="&#xf777;" 
d="M205 526l71 8l-38 -366h2l141 256h18l33 -256h2l119 366l66 -8l-190 -539h-23l-41 321l-177 -321h-23z" />
    <glyph glyph-name="X.sc" unicode="&#xf778;" 
d="M346 217l-188 -230l-53 34l216 255l-100 223l69 35l81 -198l167 198l53 -35l-194 -223l106 -255l-67 -34z" />
    <glyph glyph-name="Y.sc" unicode="&#xf779;" 
d="M357 266l196 268l55 -33l-232 -300l-43 -201h-67l43 201l-105 300l71 33z" />
    <glyph glyph-name="oneeighth" unicode="&#x215b;" 
d="M536 172c32 -18 54 -42 45 -85c-14 -62 -78 -96 -135 -96s-108 34 -94 96c9 43 42 68 82 85c-25 18 -44 41 -36 76c12 57 69 92 122 92s96 -35 84 -92c-8 -35 -37 -59 -68 -76zM479 144c-27 -14 -60 -25 -67 -58c-6 -30 17 -45 45 -45c27 0 58 15 64 45
c7 33 -21 44 -42 58zM490 199c23 13 48 22 54 49c5 26 -8 42 -34 42s-47 -16 -52 -42c-6 -27 15 -36 32 -49zM199 382l48 227l-66 -21l-8 45l150 47l-64 -298h58l-10 -50h-192l10 50h74zM604 680l46 -29l-518 -664l-47 26z" />
    <glyph glyph-name="threeeighths" unicode="&#x215c;" 
d="M546 172c32 -18 54 -42 45 -85c-14 -62 -78 -96 -135 -96s-108 34 -94 96c9 43 42 68 82 85c-25 18 -44 41 -36 76c12 57 69 92 122 92s96 -35 84 -92c-8 -35 -37 -59 -68 -76zM489 144c-27 -14 -60 -25 -67 -58c-6 -30 17 -45 45 -45c27 0 58 15 64 45
c7 33 -21 44 -42 58zM500 199c23 13 48 22 54 49c5 26 -8 42 -34 42s-47 -16 -52 -42c-6 -27 15 -36 32 -49zM607 680l46 -29l-518 -664l-47 26zM402 676l-9 -42l-103 -79c47 -5 84 -37 73 -89c-9 -41 -65 -144 -250 -133l10 50c96 -1 167 21 180 82c8 37 -30 46 -60 46
c-18 0 -36 -3 -55 -6l9 39l109 82h-136l11 50h221z" />
    <glyph glyph-name="fiveeighths" unicode="&#x215d;" 
d="M537 172c32 -18 54 -42 45 -85c-14 -62 -78 -96 -135 -96s-108 34 -94 96c9 43 42 68 82 85c-25 18 -44 41 -36 76c12 57 69 92 122 92s96 -35 84 -92c-8 -35 -37 -59 -68 -76zM480 144c-27 -14 -60 -25 -67 -58c-6 -30 17 -45 45 -45c27 0 58 15 64 45
c7 33 -21 44 -42 58zM491 199c23 13 48 22 54 49c5 26 -8 42 -34 42s-47 -16 -52 -42c-6 -27 15 -36 32 -49zM149 494l39 182h209l-11 -50h-149l-15 -73c14 4 30 7 44 7c60 0 102 -35 88 -99c-12 -57 -90 -130 -196 -130h-52l11 50h34c73 0 133 31 144 84
c6 31 -15 45 -43 45c-22 0 -40 -7 -61 -16h-42zM596 680l46 -29l-518 -664l-47 26z" />
    <glyph glyph-name="seveneighths" unicode="&#x215e;" 
d="M524 172c32 -18 54 -42 45 -85c-14 -62 -78 -96 -135 -96s-108 34 -94 96c9 43 42 68 82 85c-25 18 -44 41 -36 76c12 57 69 92 122 92s96 -35 84 -92c-8 -35 -37 -59 -68 -76zM467 144c-27 -14 -60 -25 -67 -58c-6 -30 17 -45 45 -45c27 0 58 15 64 45
c7 33 -21 44 -42 58zM478 199c23 13 48 22 54 49c5 26 -8 42 -34 42s-47 -16 -52 -42c-6 -27 15 -36 32 -49zM144 350l200 276h-143l11 50h228l-249 -346zM572 680l46 -29l-518 -664l-47 26z" />
    <glyph glyph-name="Z.sc" unicode="&#xf77a;" 
d="M104 0l371 461h-244l13 60h355l-369 -461h279l-13 -60h-392z" />
    <glyph glyph-name="Hbar.sc" 
d="M484 382h-206l-16 -77h206zM455 245h-206l-52 -245h-67l81 382h-70l13 60h70l17 79h67l-17 -79h206l17 79h67l-17 -79h70l-13 -60h-70l-81 -382h-67z" />
    <glyph glyph-name="Oslash.sc" unicode="&#xf7f8;" 
d="M230 141l229 301c-13 17 -36 25 -60 25c-101 0 -143 -130 -159 -207c-9 -40 -13 -81 -10 -119zM480 383l-230 -303c15 -17 36 -26 61 -26c101 0 143 130 159 206c9 42 14 84 10 123zM502 500l29 38l44 -28l-40 -55c25 -56 19 -128 5 -195c-43 -197 -148 -269 -242 -269
c-35 0 -68 10 -91 32l-29 -39l-46 27l43 57c-25 54 -18 129 -5 192c43 199 149 270 243 270c34 0 67 -10 89 -30z" />
    <glyph glyph-name="Tbar.sc" 
d="M574 461h-141l-31 -147h100l-13 -60h-100l-54 -254h-67l54 254h-100l13 60h100l31 147h-144l13 60h352z" />
    <glyph glyph-name="Eng.sc" 
d="M304 521l-8 -38c32 27 74 47 125 47c166 0 136 -172 109 -298c-24 -116 -59 -301 -246 -300l12 60c77 0 121 19 168 241c41 191 4 237 -66 237c-50 0 -113 -36 -124 -90l-81 -380h-67l111 521h67z" />
    <glyph glyph-name="Eth.sc" unicode="&#xf7f0;" 
d="M235 290l36 171h-54l13 60h174c148 0 202 -61 161 -254c-35 -163 -85 -267 -272 -267h-174l13 60h54l36 170h-54l13 60h54zM302 290h79l-13 -60h-79l-36 -170h71c88 0 137 50 169 200c34 160 -3 201 -86 201h-69z" />
    <glyph glyph-name="Thorn.sc" unicode="&#xf7fe;" 
d="M253 112l-24 -112h-67l111 521h67l-24 -112h95c121 0 154 -66 138 -142c-24 -110 -111 -155 -184 -155h-112zM266 172h92c66 0 107 30 120 90c15 71 -28 87 -83 87h-92z" />
    <glyph glyph-name="AE.sc" unicode="&#xf7e6;" 
d="M334 202l55 259h-42l-131 -259h118zM291 0l30 142h-137l-81 -155l-61 24l273 510h332l-13 -60h-178l-33 -156h145l-13 -60h-145l-39 -185h178l-13 -60h-245z" />
    <glyph glyph-name="OE.sc" unicode="&#xf6fa;" 
d="M414 521h238l-13 -60h-178l-33 -156h146l-13 -60h-146l-39 -185h178l-13 -60h-238c-8 -3 -17 -5 -27 -7c-9 -1 -18 -2 -27 -2c-151 0 -160 145 -134 269c45 210 160 270 243 270c20 0 39 -2 56 -9zM310 68l82 385c-13 9 -29 14 -48 14c-101 0 -142 -130 -159 -207
c-16 -76 -30 -206 71 -206c19 0 38 5 54 14z" />
    <glyph glyph-name="Aacute.sc" unicode="&#xf7e1;" 
d="M423 142h-185l-82 -155l-61 24l273 510h86l55 -510l-71 -24zM417 202l-23 241l-125 -241h148zM525 715l22 -63l-204 -82l-17 44z" />
    <glyph glyph-name="Acircumflex.sc" unicode="&#xf7e2;" 
d="M423 142h-185l-82 -155l-61 24l273 510h86l55 -510l-71 -24zM417 202l-23 241l-125 -241h148zM430 633l-140 -62l-16 36l172 102l130 -102l-31 -36z" />
    <glyph glyph-name="Adieresis.sc" unicode="&#xf7e4;" 
d="M423 142h-185l-82 -155l-61 24l273 510h86l55 -510l-71 -24zM417 202l-23 241l-125 -241h148zM353 700c33 0 40 -35 34 -63s-28 -63 -61 -63s-41 35 -35 63c6 29 29 63 62 63zM537 700c33 0 40 -35 34 -63s-28 -63 -61 -63s-41 35 -35 63c6 29 29 63 62 63z" />
    <glyph glyph-name="Agrave.sc" unicode="&#xf7e0;" 
d="M423 142h-185l-82 -155l-61 24l273 510h86l55 -510l-71 -24zM417 202l-23 241l-125 -241h148zM384 715l155 -101l-35 -44l-170 82z" />
    <glyph glyph-name="Aring.sc" unicode="&#xf7e5;" 
d="M423 142h-185l-82 -155l-61 24l273 510h86l55 -510l-71 -24zM417 202l-23 241l-125 -241h148zM445 701c48 0 78 -39 68 -86c-10 -48 -57 -87 -105 -87s-79 39 -69 87c10 47 58 86 106 86zM436 661c-26 0 -52 -21 -57 -46c-6 -26 11 -47 37 -47s51 21 57 47
c5 25 -11 46 -37 46z" />
    <glyph glyph-name="Atilde.sc" unicode="&#xf7e3;" 
d="M423 142h-185l-82 -155l-61 24l273 510h86l55 -510l-71 -24zM417 202l-23 241l-125 -241h148zM548 700l47 -16c-23 -46 -53 -105 -112 -105c-31 0 -46 13 -66 31c-9 9 -27 26 -43 26c-30 0 -48 -40 -61 -62l-45 19c27 46 61 103 119 103c27 0 43 -15 59 -30
c12 -11 28 -28 46 -28c28 0 45 42 56 62z" />
    <glyph glyph-name="Ccedilla.sc" unicode="&#xf7e7;" 
d="M461 138l47 -38c-50 -59 -102 -99 -170 -107l-19 -35c42 -2 75 -24 65 -71c-10 -48 -66 -77 -109 -77c-34 0 -68 15 -96 29l31 51c20 -11 43 -20 69 -20c13 0 32 4 36 20c7 33 -59 30 -79 32l42 72c-121 20 -134 147 -109 266c44 208 168 270 252 270
c81 0 119 -42 141 -111l-68 -31c-13 42 -35 79 -86 79c-104 0 -152 -126 -169 -206c-17 -81 -25 -207 81 -207c61 0 100 37 141 84z" />
    <glyph glyph-name="Eacute.sc" unicode="&#xf7e9;" 
d="M157 0l111 521h325l-13 -60h-258l-33 -156h213l-13 -60h-213l-39 -185h258l-13 -60h-325zM525 715l22 -63l-204 -82l-17 44z" />
    <glyph glyph-name="Ecircumflex.sc" unicode="&#xf7ea;" 
d="M157 0l111 521h325l-13 -60h-258l-33 -156h213l-13 -60h-213l-39 -185h258l-13 -60h-325zM430 633l-140 -62l-16 36l172 102l130 -102l-31 -36z" />
    <glyph glyph-name="Edieresis.sc" unicode="&#xf7eb;" 
d="M157 0l111 521h325l-13 -60h-258l-33 -156h213l-13 -60h-213l-39 -185h258l-13 -60h-325zM353 700c33 0 40 -35 34 -63s-28 -63 -61 -63s-41 35 -35 63c6 29 29 63 62 63zM537 700c33 0 40 -35 34 -63s-28 -63 -61 -63s-41 35 -35 63c6 29 29 63 62 63z" />
    <glyph glyph-name="Egrave.sc" unicode="&#xf7e8;" 
d="M157 0l111 521h325l-13 -60h-258l-33 -156h213l-13 -60h-213l-39 -185h258l-13 -60h-325zM384 715l155 -101l-35 -44l-170 82z" />
    <glyph glyph-name="Iacute.sc" unicode="&#xf7ed;" 
d="M193 0l13 60h73l85 401h-73l13 60h214l-13 -60h-74l-85 -401h74l-13 -60h-214zM525 715l22 -63l-204 -82l-17 44z" />
    <glyph glyph-name="Icircumflex.sc" unicode="&#xf7ee;" 
d="M193 0l13 60h73l85 401h-73l13 60h214l-13 -60h-74l-85 -401h74l-13 -60h-214zM430 633l-140 -62l-16 36l172 102l130 -102l-31 -36z" />
    <glyph glyph-name="Idieresis.sc" unicode="&#xf7ef;" 
d="M193 0l13 60h73l85 401h-73l13 60h214l-13 -60h-74l-85 -401h74l-13 -60h-214zM353 700c33 0 40 -35 34 -63s-28 -63 -61 -63s-41 35 -35 63c6 29 29 63 62 63zM537 700c33 0 40 -35 34 -63s-28 -63 -61 -63s-41 35 -35 63c6 29 29 63 62 63z" />
    <glyph glyph-name="Igrave.sc" unicode="&#xf7ec;" 
d="M193 0l13 60h73l85 401h-73l13 60h214l-13 -60h-74l-85 -401h74l-13 -60h-214zM384 715l155 -101l-35 -44l-170 82z" />
    <glyph glyph-name="Ldot.sc" 
d="M170 0l111 521h67l-98 -461h273l-13 -60h-340zM508 228l27 123h82l-27 -123h-82z" />
    <glyph glyph-name="Lslash.sc" unicode="&#xf6f9;" 
d="M348 521l-39 -183l187 65l-15 -67l-186 -65l-45 -211h273l-13 -60h-340l52 246l-94 -33l15 67l94 33l44 208h67z" />
    <glyph glyph-name="Ntilde.sc" unicode="&#xf7f1;" 
d="M126 0l111 521h83l108 -439l3 2l23 135l64 302h67l-111 -521h-83l-109 439l-2 -2l-23 -136l-64 -301h-67zM548 700l47 -16c-23 -46 -53 -105 -112 -105c-31 0 -46 13 -66 31c-9 9 -27 26 -43 26c-30 0 -48 -40 -61 -62l-45 19c27 46 61 103 119 103c27 0 43 -15 59 -30
c12 -11 28 -28 46 -28c28 0 45 42 56 62z" />
    <glyph glyph-name="Oacute.sc" unicode="&#xf7f3;" 
d="M413 530c83 0 172 -60 127 -270c-9 -42 -60 -269 -242 -269c-84 0 -172 60 -128 269c44 208 157 270 243 270zM399 467c-101 0 -142 -130 -159 -207c-16 -76 -30 -206 71 -206s143 130 159 206c17 77 30 207 -71 207zM525 715l22 -63l-204 -82l-17 44z" />
    <glyph glyph-name="Ocircumflex.sc" unicode="&#xf7f4;" 
d="M413 530c83 0 172 -60 127 -270c-9 -42 -60 -269 -242 -269c-84 0 -172 60 -128 269c44 208 157 270 243 270zM399 467c-101 0 -142 -130 -159 -207c-16 -76 -30 -206 71 -206s143 130 159 206c17 77 30 207 -71 207zM430 633l-140 -62l-16 36l172 102l130 -102l-31 -36z
" />
    <glyph glyph-name="Odieresis.sc" unicode="&#xf7f6;" 
d="M413 530c83 0 172 -60 127 -270c-9 -42 -60 -269 -242 -269c-84 0 -172 60 -128 269c44 208 157 270 243 270zM399 467c-101 0 -142 -130 -159 -207c-16 -76 -30 -206 71 -206s143 130 159 206c17 77 30 207 -71 207zM353 700c33 0 40 -35 34 -63s-28 -63 -61 -63
s-41 35 -35 63c6 29 29 63 62 63zM537 700c33 0 40 -35 34 -63s-28 -63 -61 -63s-41 35 -35 63c6 29 29 63 62 63z" />
    <glyph glyph-name="Ograve.sc" unicode="&#xf7f2;" 
d="M413 530c83 0 172 -60 127 -270c-9 -42 -60 -269 -242 -269c-84 0 -172 60 -128 269c44 208 157 270 243 270zM399 467c-101 0 -142 -130 -159 -207c-16 -76 -30 -206 71 -206s143 130 159 206c17 77 30 207 -71 207zM384 715l155 -101l-35 -44l-170 82z" />
    <glyph glyph-name="Otilde.sc" unicode="&#xf7f5;" 
d="M413 530c83 0 172 -60 127 -270c-9 -42 -60 -269 -242 -269c-84 0 -172 60 -128 269c44 208 157 270 243 270zM399 467c-101 0 -142 -130 -159 -207c-16 -76 -30 -206 71 -206s143 130 159 206c17 77 30 207 -71 207zM548 700l47 -16c-23 -46 -53 -105 -112 -105
c-31 0 -46 13 -66 31c-9 9 -27 26 -43 26c-30 0 -48 -40 -61 -62l-45 19c27 46 61 103 119 103c27 0 43 -15 59 -30c12 -11 28 -28 46 -28c28 0 45 42 56 62z" />
    <glyph glyph-name="Eng" unicode="&#x14a;" 
d="M299 500l-106 -500h-67l142 667h67l-9 -40c32 31 75 49 126 49c166 0 147 -120 124 -229l-69 -324c-19 -90 -44 -201 -227 -210l13 63c97 4 121 27 147 147l69 324c30 141 9 166 -81 166c-69 0 -108 -52 -129 -113z" />
    <glyph glyph-name="Hbar" unicode="&#x126;" 
d="M485 387l24 110h-206l-24 -110h206zM315 557h206l24 110h67l-24 -110h65l-12 -60h-65l-106 -497h-67l70 327h-206l-70 -327h-67l106 497h-65l12 60h65l24 110h67z" />
    <glyph glyph-name="IJ" unicode="&#x132;" 
d="M26 0l13 60h74l116 547h-74l13 60h215l-13 -60h-74l-116 -547h74l-13 -60h-215zM300 242h67c-39 -148 -15 -188 41 -188c80 0 102 96 114 153l98 460h67l-101 -473c-36 -167 -116 -203 -189 -203c-92 0 -143 31 -97 251z" />
    <glyph glyph-name="Ldot" unicode="&#x13f;" 
d="M169 0l142 667h67l-129 -607h274l-13 -60h-341zM519 304l27 128h82l-27 -128h-82z" />
    <glyph glyph-name="Tbar" unicode="&#x166;" 
d="M605 607h-141l-48 -224h118l-12 -60h-118l-69 -323h-67l69 323h-118l12 60h118l48 224h-144l13 60h352z" />
    <glyph glyph-name="dcroat" unicode="&#x111;" 
d="M271 461h-54l13 60h174c148 0 202 -61 161 -254c-35 -163 -85 -267 -272 -267h-174l13 60h54l36 171h-54l13 60h54zM407 461h-69l-36 -170h79l-13 -60h-79l-36 -171h71c88 0 137 50 169 200c34 160 -3 201 -86 201z" />
    <glyph glyph-name="eng" unicode="&#x14b;" 
d="M304 521l-8 -38c32 27 74 47 125 47c166 0 136 -172 109 -298c-24 -116 -59 -301 -246 -300l12 60c77 0 121 19 168 241c41 191 4 237 -66 237c-50 0 -113 -36 -124 -90l-81 -380h-67l111 521h67z" />
    <glyph glyph-name="hbar" unicode="&#x127;" 
d="M484 382h-206l-16 -77h206zM455 245h-206l-52 -245h-67l81 382h-70l13 60h70l17 79h67l-17 -79h206l17 79h67l-17 -79h70l-13 -60h-70l-81 -382h-67z" />
    <glyph glyph-name="ij" unicode="&#x133;" 
d="M23 0l13 60h63l85 401h-63l13 60h194l-13 -60h-64l-85 -401h64l-13 -60h-194zM290 242h67l-12 -60c-12 -60 -16 -128 53 -128c73 0 99 81 111 137l70 330h67l-71 -335c-33 -155 -113 -195 -188 -195c-119 0 -131 85 -112 178z" />
    <glyph glyph-name="ldot" unicode="&#x140;" 
d="M170 0l111 521h67l-98 -461h273l-13 -60h-340zM508 228l27 123h82l-27 -123h-82z" />
    <glyph glyph-name="tbar" unicode="&#x167;" 
d="M574 461h-141l-31 -147h100l-13 -60h-100l-54 -254h-67l54 254h-100l13 60h100l31 147h-144l13 60h352z" />
    <glyph glyph-name="kgreenlandic" unicode="&#x138;" 
d="M340 521l-47 -222h25l162 167c21 22 58 50 81 56c30 8 56 8 80 8l-12 -55c-22 1 -39 2 -64 -9c-19 -8 -35 -26 -51 -42l-145 -149l151 -245l-60 -43l-156 257h-23l-52 -244h-67l111 521h67z" />
    <glyph glyph-name="napostrophe" unicode="&#x149;" 
d="M231 667h92l-10 -45c-15 -67 -77 -130 -145 -162l-12 55c39 22 55 56 62 91zM212 0l111 521h83l108 -439l3 2l23 135l64 302h67l-111 -521h-83l-109 439l-2 -2l-23 -136l-64 -301h-67z" />
    <glyph glyph-name="Delta" unicode="&#x2206;" 
d="M15 0l10 46l381 633h75l111 -632l-10 -47h-567zM92 51h430l-66 383c-8 49 -21 139 -26 181h-4c-17 -31 -66 -114 -95 -163z" />
    <glyph glyph-name="Omega" unicode="&#x2126;" 
d="M189 51v2c-67 58 -111 185 -84 323c29 149 136 294 325 294c157 0 266 -140 226 -340c-26 -126 -116 -226 -200 -277v-2h161l-10 -51h-254l7 38c93 47 205 150 232 290c30 160 -33 292 -175 292c-87 0 -216 -73 -252 -258c-29 -147 32 -279 110 -324l-7 -38h-254l10 51
h165z" />
    <glyph glyph-name="pi" unicode="&#x3c0;" 
d="M628 437h-80l-35 -291c-10 -86 -7 -121 -2 -146h-64c-7 14 -10 52 0 137l36 300h-168c-22 -127 -85 -353 -134 -437h-64c52 98 111 305 133 437c-72 0 -92 -5 -117 -14l-6 41c28 15 62 26 141 26h374z" />
    <glyph glyph-name="underscoredbl" unicode="&#x2017;" 
d="M600 -108h-600v36h600v-36zM600 -216h-600v36h600v-36z" />
    <glyph glyph-name="exclamdbl" unicode="&#x203c;" 
d="M248 207h-64l80 460h102zM380 0l31 148h92l-31 -148h-92zM502 207h-64l80 460h102zM127 0l31 148h92l-31 -148h-92z" />
    <glyph glyph-name="franc" unicode="&#x20a3;" 
d="M432 283h70c52 0 88 37 101 96c10 47 0 82 -48 82h-85zM312 0l111 521h147c69 0 114 -41 93 -142c-14 -64 -61 -127 -115 -146l56 -211l-59 -35l-55 236h-71l-47 -223h-60zM56 0l142 667h268l-13 -60h-201l-47 -220h159l-12 -60h-159l-70 -327h-67z" />
    <glyph glyph-name="Euro" unicode="&#x20ac;" 
d="M686 623l-16 -73c-27 32 -79 60 -157 60c-127 0 -210 -84 -246 -184h329l-33 -56h-316c-3 -9 -6 -22 -9 -34c-3 -15 -5 -29 -7 -38h288l-34 -56h-257c-6 -116 50 -187 168 -187c77 0 137 27 182 61l-16 -75c-33 -23 -102 -49 -188 -49c-149 0 -227 83 -218 250h-76l33 56
h49c0 9 3 25 6 38s6 25 9 34h-70l33 56h54c51 136 155 249 326 249c82 0 140 -27 166 -52z" />
    <glyph glyph-name="estimated" unicode="&#x212e;" 
d="M672 258h-491c-2 0 -4 -1 -4 -3v-149c0 -6 3 -12 7 -17c47 -49 113 -80 185 -80c78 0 148 35 196 90h43c-54 -64 -141 -105 -239 -105c-168 0 -303 121 -303 271c0 151 135 273 303 273s303 -122 303 -273v-7zM561 277v150c0 6 -3 13 -8 17c-47 47 -112 78 -184 78
c-71 0 -137 -31 -184 -80c-5 -5 -8 -11 -8 -18v-147c0 -1 2 -5 4 -5h376c3 0 4 4 4 5z" />
    <glyph glyph-name="partialdiff" unicode="&#x2202;" 
d="M190 643l-25 43c34 26 89 54 174 54c137 0 263 -123 263 -359c0 -200 -89 -387 -272 -387c-140 0 -202 120 -202 220c0 144 105 237 223 237c105 0 170 -77 186 -107h1c2 14 2 35 2 48c0 184 -97 298 -206 298c-68 0 -115 -26 -144 -47zM335 45h1c107 0 177 115 192 238
c-16 44 -78 118 -167 118c-92 0 -169 -82 -169 -185c0 -95 57 -171 143 -171z" />
    <glyph glyph-name="product" unicode="&#x220f;" 
d="M670 609h-82v-695h-63v695h-298v-695h-63v695h-82v55h588v-55z" />
    <glyph glyph-name="summation" unicode="&#x2211;" 
d="M269 607l185 -256l-191 -291h279v-60h-344v67l184 286l-184 248v66h341v-60h-270z" />
    <glyph glyph-name="uni2219" unicode="&#x2219;" 
d="M313 279l23 108h92l-23 -108h-92z" />
    <glyph glyph-name="radical" unicode="&#x221a;" 
d="M668 786l-236 -924h-60l-172 443l-79 -30l-15 39l134 52l144 -377c7 -19 12 -42 17 -60h1c3 17 9 41 14 61l202 796h50z" />
    <glyph glyph-name="infinity" unicode="&#x221e;" 
d="M522 125c-64 0 -108 46 -158 117c-20 -27 -41 -58 -67 -81c-25 -22 -54 -36 -94 -36c-79 0 -142 66 -142 150c0 104 77 152 148 152c57 0 94 -34 127 -75c11 -13 21 -28 32 -42c45 66 88 117 161 117c76 0 136 -62 136 -148v-1c0 -93 -66 -153 -143 -153zM525 385h-1
c-47 0 -80 -36 -105 -69c-10 -13 -18 -25 -28 -38c50 -71 86 -110 135 -110c62 0 92 55 92 107c0 71 -42 110 -93 110zM201 385c-46 0 -93 -34 -93 -111c0 -58 37 -106 101 -106h1c57 0 97 66 128 106c-37 54 -79 111 -137 111z" />
    <glyph glyph-name="integral" unicode="&#x222b;" 
d="M526 794l-12 -43c-8 6 -26 11 -40 11c-16 0 -39 -5 -53 -21c-28 -30 -38 -82 -38 -171c0 -147 15 -329 15 -479c0 -104 -23 -159 -46 -190c-21 -30 -58 -46 -95 -46c-25 0 -55 10 -67 18l13 44c9 -4 28 -13 50 -13c17 0 37 8 49 21c22 26 39 67 39 167
c0 152 -15 337 -15 484c0 101 14 160 54 198c26 25 58 35 90 35c21 0 46 -9 56 -15z" />
    <glyph glyph-name="approxequal" unicode="&#x2248;" 
d="M590 493l27 -24c-29 -51 -69 -93 -133 -93c-45 0 -74 17 -126 44c-32 17 -65 35 -101 35c-50 0 -80 -37 -108 -76l-28 24c33 58 84 93 143 93c51 0 89 -28 119 -43c38 -19 62 -35 103 -35c44 0 73 24 104 75zM590 342l27 -25c-29 -50 -68 -92 -133 -92
c-45 0 -74 17 -126 44c-33 18 -65 35 -101 35c-51 0 -80 -37 -108 -77l-28 25c33 58 84 93 143 93c51 0 89 -26 119 -42c35 -18 61 -36 104 -36c44 0 71 24 103 75z" />
    <glyph glyph-name="notequal" unicode="&#x2260;" 
d="M494 556l-58 -105h199v-44h-223l-52 -93h275v-44h-298l-66 -125l-34 17l57 108h-190v44h215l51 93h-266v44h289c23 43 47 85 67 122c11 -5 23 -11 34 -17z" />
    <glyph glyph-name="lessequal" unicode="&#x2264;" 
d="M610 86l-482 228v44l482 228v-50l-433 -198v-2l433 -200v-50zM613 1h-491v43h491v-43z" />
    <glyph glyph-name="greaterequal" unicode="&#x2265;" 
d="M129 586l481 -228v-44l-481 -228v50l432 199v2l-432 199v50zM612 1h-489v43h489v-43z" />
    <glyph glyph-name="lozenge" unicode="&#x25ca;" 
d="M597 334l-215 -377h-51l-213 377l214 378h51zM538 333l-161 283c-8 14 -16 33 -20 45h-2c-5 -14 -11 -29 -20 -45l-159 -280l162 -285c10 -17 16 -33 18 -44h4c3 11 11 32 18 44z" />
    <glyph glyph-name="uni02C9" unicode="&#x2c9;" 
d="M569 586h-287l12 60h287z" />
    <glyph glyph-name="Scaron.sc" unicode="&#xf6fd;" 
d="M162 146l64 19c-1 -64 20 -111 90 -111c55 0 105 30 117 88c14 64 -37 80 -83 101c-70 32 -137 52 -116 150c18 88 100 137 182 137c87 0 127 -50 131 -131l-68 -19c-1 51 -21 87 -78 87c-43 0 -89 -22 -99 -69c-11 -49 16 -64 52 -81l101 -49c41 -26 58 -68 46 -122
c-21 -99 -102 -155 -198 -155c-97 0 -145 62 -141 155zM319 707l114 -62l141 62l15 -36l-172 -102l-130 102z" />
    <glyph glyph-name="Uacute.sc" unicode="&#xf7fa;" 
d="M248 521h67l-76 -355c-16 -76 -2 -112 67 -112c84 0 110 37 126 112l76 355h67l-83 -387c-15 -69 -79 -143 -194 -143c-113 0 -148 71 -132 147zM525 715l22 -63l-204 -82l-17 44z" />
    <glyph glyph-name="Ucircumflex.sc" unicode="&#xf7fb;" 
d="M248 521h67l-76 -355c-16 -76 -2 -112 67 -112c84 0 110 37 126 112l76 355h67l-83 -387c-15 -69 -79 -143 -194 -143c-113 0 -148 71 -132 147zM430 633l-140 -62l-16 36l172 102l130 -102l-31 -36z" />
    <glyph glyph-name="Udieresis.sc" unicode="&#xf7fc;" 
d="M248 521h67l-76 -355c-16 -76 -2 -112 67 -112c84 0 110 37 126 112l76 355h67l-83 -387c-15 -69 -79 -143 -194 -143c-113 0 -148 71 -132 147zM353 700c33 0 40 -35 34 -63s-28 -63 -61 -63s-41 35 -35 63c6 29 29 63 62 63zM537 700c33 0 40 -35 34 -63
s-28 -63 -61 -63s-41 35 -35 63c6 29 29 63 62 63z" />
    <glyph glyph-name="Ugrave.sc" unicode="&#xf7f9;" 
d="M248 521h67l-76 -355c-16 -76 -2 -112 67 -112c84 0 110 37 126 112l76 355h67l-83 -387c-15 -69 -79 -143 -194 -143c-113 0 -148 71 -132 147zM384 715l155 -101l-35 -44l-170 82z" />
    <glyph glyph-name="Yacute.sc" unicode="&#xf7fd;" 
d="M357 266l196 268l55 -33l-232 -300l-43 -201h-67l43 201l-105 300l71 33zM525 715l22 -63l-204 -82l-17 44z" />
    <glyph glyph-name="Ydieresis.sc" unicode="&#xf7ff;" 
d="M357 266l196 268l55 -33l-232 -300l-43 -201h-67l43 201l-105 300l71 33zM353 700c33 0 40 -35 34 -63s-28 -63 -61 -63s-41 35 -35 63c6 29 29 63 62 63zM537 700c33 0 40 -35 34 -63s-28 -63 -61 -63s-41 35 -35 63c6 29 29 63 62 63z" />
    <glyph glyph-name="Zcaron.sc" unicode="&#xf6ff;" 
d="M104 0l371 461h-244l13 60h355l-369 -461h279l-13 -60h-392zM319 707l114 -62l141 62l15 -36l-172 -102l-130 102z" />
    <glyph glyph-name="uni2502" unicode="&#x2502;" 
d="M334 -288v1080h72v-1080h-72z" />
    <glyph glyph-name="uni2558" unicode="&#x2558;" 
d="M334 144v648h72v-432h264v-72h-264v-72h264v-72h-336z" />
    <glyph glyph-name="IJ.sc" 
d="M23 0l13 60h63l85 401h-63l13 60h194l-13 -60h-64l-85 -401h64l-13 -60h-194zM290 242h67l-12 -60c-12 -60 -16 -128 53 -128c73 0 99 81 111 137l70 330h67l-71 -335c-33 -155 -113 -195 -188 -195c-119 0 -131 85 -112 178z" />
    <glyph glyph-name="uni2304" unicode="&#x2304;" 
d="M180 680h50l140 -275l137 275h50l-161 -323h-52z" />
    <glyph glyph-name="uni2552" unicode="&#x2552;" 
d="M334 -288v648h336v-72h-264v-72h264v-72h-264v-432h-72z" />
    <glyph glyph-name="uni2559" unicode="&#x2559;" 
d="M262 216v576h72v-504h72v504h72v-504h192v-72h-408z" />
    <glyph glyph-name="uni2562" unicode="&#x2562;" 
d="M70 216v72h192v504h72v-1080h-72v504h-192zM406 -288v1080h72v-1080h-72z" />
    <glyph glyph-name="uni2553" unicode="&#x2553;" 
d="M670 288v-72h-192v-504h-72v504h-72v-504h-72v576h408z" />
    <glyph glyph-name="uni2555" unicode="&#x2555;" 
d="M406 360v-648h-72v432h-264v72h264v72h-264v72h336z" />
    <glyph glyph-name="arrowboth" unicode="&#x2194;" 
d="M534 338h-328c15 -23 49 -98 49 -123c0 -8 -5 -16 -14 -16s-17 14 -21 20c-31 46 -77 95 -125 123c-6 3 -21 10 -21 18s15 15 21 18c48 28 94 77 125 123c4 6 12 20 21 20s14 -8 14 -16c0 -25 -34 -100 -49 -123h328c-15 23 -49 98 -49 123c0 8 5 16 14 16s17 -14 21 -20
c31 -46 77 -95 125 -123c6 -3 21 -10 21 -18s-15 -15 -21 -18c-48 -28 -94 -77 -125 -123c-4 -6 -12 -20 -21 -20s-14 8 -14 16c0 25 34 100 49 123z" />
    <glyph glyph-name="uni251C" unicode="&#x251c;" 
d="M334 -288v1080h72v-504h264v-72h-264v-504h-72z" />
    <glyph glyph-name="arrowupdn" unicode="&#x2195;" 
d="M348 196v328c-23 -15 -98 -49 -123 -49c-8 0 -16 5 -16 14s14 17 20 21c46 31 95 77 123 125c3 6 10 21 18 21s15 -15 18 -21c28 -48 77 -94 123 -125c6 -4 20 -12 20 -21s-8 -14 -16 -14c-25 0 -100 34 -123 49v-328c23 15 98 49 123 49c8 0 16 -5 16 -14
s-14 -17 -20 -21c-46 -31 -95 -77 -123 -125c-3 -6 -10 -21 -18 -21s-15 15 -18 21c-28 48 -77 94 -123 125c-6 4 -20 12 -20 21s8 14 16 14c25 0 100 -34 123 -49z" />
    <glyph glyph-name="arrowupdnbse" unicode="&#x21a8;" 
d="M348 261v328c-23 -15 -98 -49 -123 -49c-8 0 -16 5 -16 14s14 17 20 21c46 31 95 77 123 125c3 6 10 21 18 21s15 -15 18 -21c28 -48 77 -94 123 -125c6 -4 20 -12 20 -21s-8 -14 -16 -14c-25 0 -100 34 -123 49v-328c23 15 98 49 123 49c8 0 16 -5 16 -14
s-14 -17 -20 -21c-46 -31 -95 -77 -123 -125c-3 -6 -10 -21 -18 -21s-15 15 -18 21c-28 48 -77 94 -123 125c-6 4 -20 12 -20 21s8 14 16 14c25 0 100 -34 123 -49zM531 44v-44h-322v44h322z" />
    <glyph glyph-name="uni255B" unicode="&#x255b;" 
d="M406 792v-648h-336v72h264v72h-264v72h264v432h72z" />
    <glyph glyph-name="uni2564" unicode="&#x2564;" 
d="M70 144v72h600v-72h-264v-432h-72v432h-264zM70 288v72h600v-72h-600z" />
    <glyph glyph-name="uni03BC" unicode="&#x3bc;" 
d="M402 0l9 44c-29 -32 -71 -53 -111 -53c-41 0 -74 17 -92 49l-54 -251h-67l156 732h67l-73 -344c-21 -101 44 -123 71 -123c76 0 123 82 136 144l69 323h67l-111 -521h-67z" />
    <glyph glyph-name="uni266C" unicode="&#x266c;" 
d="M570 202v280l-309 -93v-241c0 -121 -67 -175 -156 -175c-41 0 -69 22 -69 63c0 65 63 118 125 118c18 0 40 -4 56 -11v469l397 112v-517c0 -121 -67 -175 -156 -175c-41 0 -69 22 -69 63c0 65 63 118 125 118c18 0 40 -4 56 -11zM261 468l309 94v72l-309 -94v-72z" />
    <glyph glyph-name="uni2215" unicode="&#x2215;" 
d="M607 680l46 -29l-518 -664l-47 26z" />
    <glyph glyph-name="uni2560" unicode="&#x2560;" 
d="M262 -288v1080h72v-1080h-72zM406 -288v504h264v-72h-192v-432h-72zM406 288v504h72v-432h192v-72h-264z" />
    <glyph glyph-name="block" unicode="&#x2588;" 
d="M70 -288v1080h600v-1080h-600z" />
    <glyph glyph-name="uni255D" unicode="&#x255d;" 
d="M70 144v72h336v576h72v-648h-408zM70 288v72h192v432h72v-504h-264z" />
    <glyph glyph-name="uni2319" unicode="&#x2319;" 
d="M100 276h44v-232h496v-44h-540v276z" />
    <glyph glyph-name="circle" unicode="&#x25cb;" 
d="M141 252c0 126 103 229 229 229s229 -103 229 -229s-103 -229 -229 -229s-229 103 -229 229zM183 252c0 -103 84 -187 187 -187s187 84 187 187c0 102 -84 187 -187 187s-187 -85 -187 -187z" />
    <glyph glyph-name="club" unicode="&#x2663;" 
d="M573 0h-406l6 21c109 25 192 72 192 275h-2c-21 -64 -80 -138 -153 -138c-88 0 -137 83 -137 162c0 64 40 160 109 160c35 0 62 -15 86 -30c-19 37 -32 64 -32 106c0 72 48 156 134 156s134 -84 134 -156c0 -42 -13 -69 -32 -106c24 15 51 30 86 30
c69 0 109 -96 109 -160c0 -79 -49 -162 -137 -162c-73 0 -132 74 -153 138h-2c0 -203 83 -250 192 -275z" />
    <glyph glyph-name="uni250C" unicode="&#x250c;" 
d="M334 -288v576h336v-72h-264v-504h-72z" />
    <glyph glyph-name="uni2662" unicode="&#x2662;" 
d="M370 712c84 -129 188 -249 297 -362c-109 -113 -213 -233 -297 -362c-84 129 -188 249 -297 362c109 113 213 233 297 362zM370 11c76 119 175 232 277 339c-102 107 -201 220 -277 339c-76 -119 -175 -232 -277 -339c102 -107 201 -220 277 -339z" />
    <glyph glyph-name="uni255A" unicode="&#x255a;" 
d="M262 144v648h72v-576h336v-72h-408zM406 288v504h72v-432h192v-72h-264z" />
    <glyph glyph-name="diamond" unicode="&#x2666;" 
d="M370 712c84 -129 188 -249 297 -362c-109 -113 -213 -233 -297 -362c-84 129 -188 249 -297 362c109 113 213 233 297 362z" />
    <glyph glyph-name="uni253C" unicode="&#x253c;" 
d="M70 216v72h264v504h72v-504h264v-72h-264v-504h-72v504h-264z" />
    <glyph glyph-name="uni03A9" unicode="&#x3a9;" 
d="M189 51v2c-67 58 -111 185 -84 323c29 149 136 294 325 294c157 0 266 -140 226 -340c-26 -126 -116 -226 -200 -277v-2h161l-10 -51h-254l7 38c93 47 205 150 232 290c30 160 -33 292 -175 292c-87 0 -216 -73 -252 -258c-29 -147 32 -279 110 -324l-7 -38h-254l10 51
h165z" />
    <glyph glyph-name="uni2554" unicode="&#x2554;" 
d="M262 -288v648h408v-72h-336v-576h-72zM406 -288v504h264v-72h-192v-432h-72z" />
    <glyph glyph-name="dkshade" unicode="&#x2593;" 
d="M208 -92h-138v97h138v-97zM270 -190h-138v97h138v-97zM270 6h-138v97h138v-97zM208 -288h-138v97h138v-97zM408 -92h-138v97h138v-97zM470 -190h-138v97h138v-97zM470 6h-138v97h138v-97zM408 -288h-138v97h138v-97zM608 -92h-138v97h138v-97zM670 -190h-138v97h138v-97z
M670 6h-138v97h138v-97zM608 -288h-138v97h138v-97zM270 597h-138v97h138v-97zM208 695h-138v97h138v-97zM208 499h-138v97h138v-97zM470 597h-138v97h138v-97zM408 695h-138v97h138v-97zM408 499h-138v97h138v-97zM670 597h-138v97h138v-97zM608 695h-138v97h138v-97z
M608 499h-138v97h138v-97zM208 105h-138v97h138v-97zM270 203h-138v97h138v-97zM408 105h-138v97h138v-97zM470 203h-138v97h138v-97zM608 105h-138v97h138v-97zM670 203h-138v97h138v-97zM208 302h-138v97h138v-97zM270 400h-138v97h138v-97zM408 302h-138v97h138v-97z
M470 400h-138v97h138v-97zM608 302h-138v97h138v-97zM670 400h-138v97h138v-97z" />
    <glyph glyph-name="dnblock" unicode="&#x2584;" 
d="M70 -288v540h600v-540h-600z" />
    <glyph glyph-name="dotmath" unicode="&#x22c5;" 
d="M320 360c0 20 16 36 36 36s36 -16 36 -36s-16 -36 -36 -36s-36 16 -36 36z" />
    <glyph glyph-name="equivalence" unicode="&#x2261;" 
d="M636 516v-44h-532v44h532zM636 382v-44h-532v44h532zM636 248v-44h-532v44h532z" />
    <glyph glyph-name="uni2551" unicode="&#x2551;" 
d="M262 -288v1080h72v-1080h-72zM406 -288v1080h72v-1080h-72z" />
    <glyph glyph-name="female" unicode="&#x2640;" 
d="M388 0h-36v171h-126v36h126v109c-87 15 -144 84 -144 164c0 89 73 160 162 160c91 0 162 -71 162 -160c0 -80 -55 -149 -144 -164v-109h126v-36h-126v-171zM240 478c0 -73 57 -130 129 -130c74 0 131 57 131 130s-57 130 -131 130c-72 0 -129 -57 -129 -130z" />
    <glyph glyph-name="uni2565" unicode="&#x2565;" 
d="M70 216v72h600v-72h-192v-504h-72v504h-72v-504h-72v504h-192z" />
    <glyph glyph-name="filledrect" unicode="&#x25ac;" 
d="M170 260v200h400v-200h-400z" />
    <glyph glyph-name="uni203E" unicode="&#x203e;" 
d="M520 728h-300v36h300v-36z" />
    <glyph glyph-name="uni2500" unicode="&#x2500;" 
d="M70 216v72h600v-72h-600z" />
    <glyph glyph-name="heart" unicode="&#x2665;" 
d="M371 -12h-2c-29 120 -107 224 -180 322c-54 72 -116 161 -116 253c0 83 59 149 144 149c79 0 137 -73 152 -145h2c15 72 73 145 152 145c85 0 144 -66 144 -149c0 -92 -62 -181 -116 -253c-73 -98 -151 -202 -180 -322z" />
    <glyph glyph-name="uni2561" unicode="&#x2561;" 
d="M70 144v72h264v72h-264v72h264v432h72v-1080h-72v432h-264z" />
    <glyph glyph-name="uni2569" unicode="&#x2569;" 
d="M70 144v72h600v-72h-600zM70 288v72h192v432h72v-504h-264zM406 288v504h72v-432h192v-72h-264z" />
    <glyph glyph-name="uni00AD" unicode="&#xad;" 
d="M238 229l13 63h222l-13 -63h-222z" />
    <glyph glyph-name="house" unicode="&#x2302;" 
d="M660 0h-580v406l290 169l290 -169v-406zM110 30h520v361l-260 152l-260 -152v-361z" />
    <glyph glyph-name="uni25A0" unicode="&#x25a0;" 
d="M170 100v400h400v-400h-400z" />
    <glyph glyph-name="integralbt" unicode="&#x2321;" 
d="M391 538v-264c0 -136 12 -508 -185 -508c-77 0 -136 70 -136 139c0 26 9 58 41 58c72 0 25 -157 106 -157c23 0 55 6 82 67c27 62 48 179 48 251v414h44z" />
    <glyph glyph-name="integraltp" unicode="&#x2320;" 
d="M349 274v264c0 136 -12 508 185 508c77 0 136 -70 136 -139c0 -26 -9 -58 -41 -58c-72 0 -25 157 -106 157c-23 0 -55 -6 -82 -67c-27 -62 -48 -179 -48 -251v-414h-44z" />
    <glyph glyph-name="uni2518" unicode="&#x2518;" 
d="M406 792v-576h-336v72h264v504h72z" />
    <glyph glyph-name="uni2514" unicode="&#x2514;" 
d="M334 216v576h72v-504h264v-72h-336z" />
    <glyph glyph-name="uni0044_uni004D" unicode="&#xe007;" 
d="M517 667l10 -273h2l126 273h79l-142 -667h-60l114 536h-2l-154 -325h-2l-16 325h-2l-114 -536h-60l142 667h79zM175 607h-39l13 60h126c96 0 139 -59 81 -334c-31 -147 -77 -333 -222 -333h-127l13 60h39zM235 607l-116 -547h27c48 0 96 21 150 273
c54 254 10 274 -23 274h-38z" />
    <glyph glyph-name="uni256A" unicode="&#x256a;" 
d="M70 144v72h264v72h-264v72h264v432h72v-432h264v-72h-264v-72h264v-72h-264v-432h-72v432h-264z" />
    <glyph glyph-name="intersection" unicode="&#x2229;" 
d="M660 0h-44v444c0 137 -121 251 -246 251s-246 -114 -246 -251v-444h-44v433c0 169 125 301 290 301s290 -132 290 -301v-433z" />
    <glyph glyph-name="uni2534" unicode="&#x2534;" 
d="M70 216v72h264v504h72v-504h264v-72h-600z" />
    <glyph glyph-name="uni2556" unicode="&#x2556;" 
d="M70 216v72h408v-576h-72v504h-72v-504h-72v504h-192z" />
    <glyph glyph-name="invbullet" unicode="&#x25d8;" 
d="M70 -288v1080h600v-1080h-600zM247 252c0 -69 54 -123 123 -123c67 0 123 54 123 123c0 67 -56 123 -123 123s-123 -56 -123 -123z" />
    <glyph glyph-name="uni2524" unicode="&#x2524;" 
d="M70 216v72h264v504h72v-1080h-72v504h-264z" />
    <glyph glyph-name="uni255C" unicode="&#x255c;" 
d="M478 792v-576h-408v72h192v504h72v-504h72v504h72z" />
    <glyph glyph-name="uni25C0" unicode="&#x25c0;" 
d="M607 614v-508l-474 254z" />
    <glyph glyph-name="invcircle" unicode="&#x25d9;" 
d="M70 -288v1080h600v-1080h-600zM141 252c0 -126 103 -229 229 -229s229 103 229 229s-103 229 -229 229s-229 -103 -229 -229zM183 252c0 102 84 187 187 187s187 -85 187 -187c0 -103 -84 -187 -187 -187s-187 84 -187 187z" />
    <glyph glyph-name="invsmileface" unicode="&#x263b;" 
d="M80 330c0 162 127 290 290 290s290 -128 290 -290s-127 -290 -290 -290s-290 128 -290 290zM202 429c0 -28 22 -50 50 -50s50 22 50 50s-22 50 -50 50s-50 -22 -50 -50zM438 429c0 -28 22 -50 50 -50s50 22 50 50s-22 50 -50 50s-50 -22 -50 -50zM370 110
c46 0 102 16 140 62c34 40 13 89 -2 62c-42 -76 -96 -90 -138 -90s-96 14 -138 90c-15 27 -36 -22 -2 -62c38 -46 94 -62 140 -62z" />
    <glyph glyph-name="lfblock" unicode="&#x258c;" 
d="M70 -288v1080h300v-1080h-300z" />
    <glyph glyph-name="uni2566" unicode="&#x2566;" 
d="M70 144v72h264v-504h-72v432h-192zM70 288v72h600v-72h-600zM406 -288v504h264v-72h-192v-432h-72z" />
    <glyph glyph-name="ltshade" unicode="&#x2591;" 
d="M70 -288v98h100v-98h-100zM270 -288v98h100v-98h-100zM470 -288v98h100v-98h-100zM70 694v98h100v-98h-100zM270 694v98h100v-98h-100zM470 694v98h100v-98h-100zM70 497v98h100v-98h-100zM270 497v98h100v-98h-100zM470 497v98h100v-98h-100zM70 -91v98h100v-98h-100z
M270 -91v98h100v-98h-100zM470 -91v98h100v-98h-100zM70 105v98h100v-98h-100zM270 105v98h100v-98h-100zM470 105v98h100v-98h-100zM70 301v98h100v-98h-100zM270 301v98h100v-98h-100zM470 301v98h100v-98h-100z" />
    <glyph glyph-name="male" unicode="&#x2642;" 
d="M375 140c52 52 51 132 0 183c-52 53 -133 53 -184 1c-52 -52 -52 -131 1 -184c51 -51 131 -52 183 0zM385 359l170 171l-104 38v2h170v-170h-2l-39 104l-170 -170c51 -72 42 -161 -14 -218c-63 -63 -165 -61 -228 2c-64 64 -64 164 -1 227c56 57 144 67 218 14z" />
    <glyph glyph-name="uni256B" unicode="&#x256b;" 
d="M70 216v72h192v504h72v-504h72v504h72v-504h192v-72h-192v-504h-72v504h-72v-504h-72v504h-192z" />
    <glyph glyph-name="musicalnote" unicode="&#x266a;" 
d="M331 181v531h44v-63l23 -29l39 -46c63 -74 102 -147 102 -246c0 -58 -21 -122 -59 -166h-29c29 49 43 96 43 154c0 73 -39 168 -119 181v-314c0 -117 -67 -173 -155 -173c-41 0 -69 22 -69 64c0 64 62 118 124 118c18 0 40 -4 56 -11z" />
    <glyph glyph-name="uni03D5" unicode="&#x3d5;" 
d="M283 59l85 404c-79 -24 -113 -134 -128 -203c-14 -68 -27 -178 43 -201zM428 462l-85 -403c78 23 113 133 127 201c15 69 27 179 -42 202zM460 610l-17 -80c73 -13 136 -85 97 -270c-9 -40 -55 -246 -212 -269l-15 -71h-60l15 71c-73 13 -137 84 -98 269
c39 184 132 256 213 270l17 80h60z" />
    <glyph glyph-name="rtblock" unicode="&#x2590;" 
d="M370 -288v1080h300v-1080h-300z" />
    <glyph glyph-name="uni2557" unicode="&#x2557;" 
d="M70 144v72h264v-504h-72v432h-192zM70 288v72h408v-648h-72v576h-336z" />
    <glyph glyph-name="uni255E" unicode="&#x255e;" 
d="M670 216v-72h-264v-432h-72v1080h72v-432h264v-72h-264v-72h264z" />
    <glyph glyph-name="uni2510" unicode="&#x2510;" 
d="M406 288v-576h-72v504h-264v72h336z" />
    <glyph glyph-name="uni00A0" unicode="&#xa0;" 
 />
    <glyph glyph-name="uni2550" unicode="&#x2550;" 
d="M70 144v72h600v-72h-600zM70 288v72h600v-72h-600z" />
    <glyph glyph-name="shade" unicode="&#x2592;" 
d="M70 -288v97h99v-97h-99zM270 -288v97h99v-97h-99zM470 -288v97h99v-97h-99zM70 695v97h99v-97h-99zM270 695v97h99v-97h-99zM470 695v97h99v-97h-99zM70 499v97h99v-97h-99zM270 499v97h99v-97h-99zM470 499v97h99v-97h-99zM70 -92v97h99v-97h-99zM270 -92v97h99v-97h-99
zM470 -92v97h99v-97h-99zM70 105v97h99v-97h-99zM270 105v97h99v-97h-99zM470 105v97h99v-97h-99zM70 302v97h99v-97h-99zM270 302v97h99v-97h-99zM470 302v97h99v-97h-99zM170 597v97h99v-97h-99zM370 597v97h99v-97h-99zM570 597v97h100v-97h-100zM170 400v97h99v-97h-99z
M370 400v97h99v-97h-99zM570 400v97h100v-97h-100zM570 203v97h100v-97h-100zM370 203v97h99v-97h-99zM170 203v97h99v-97h-99zM170 6v97h99v-97h-99zM370 6v97h99v-97h-99zM570 6v97h100v-97h-100zM570 -190v97h100v-97h-100zM370 -190v97h99v-97h-99zM170 -190v97h99v-97
h-99z" />
    <glyph glyph-name="smileface" unicode="&#x263a;" 
d="M80 330c0 162 127 290 290 290s290 -128 290 -290s-127 -290 -290 -290s-290 128 -290 290zM370 605c-154 0 -274 -121 -274 -275s120 -275 274 -275s274 121 274 275s-120 275 -274 275zM202 429c0 28 22 50 50 50s50 -22 50 -50s-22 -50 -50 -50s-50 22 -50 50z
M438 429c0 28 22 50 50 50s50 -22 50 -50s-22 -50 -50 -50s-50 22 -50 50zM370 110c-46 0 -102 16 -140 62c-34 40 -13 89 2 62c42 -76 96 -90 138 -90s96 14 138 90c15 27 36 -22 2 -62c-38 -46 -94 -62 -140 -62z" />
    <glyph glyph-name="spade" unicode="&#x2660;" 
d="M612 0h-484l4 22c157 5 229 90 229 247h-2c-28 -63 -81 -110 -155 -110c-70 0 -131 56 -131 128c0 86 73 143 133 195c77 66 139 127 163 230h2c24 -103 86 -164 163 -230c60 -52 133 -109 133 -195c0 -72 -61 -128 -131 -128c-74 0 -127 47 -155 110h-2
c0 -157 72 -242 229 -247z" />
    <glyph glyph-name="uni252C" unicode="&#x252c;" 
d="M70 216v72h600v-72h-264v-504h-72v504h-264z" />
    <glyph glyph-name="sun" unicode="&#x263c;" 
d="M588 513l-88 -88c22 -25 32 -59 36 -90h124v-32h-125c-5 -36 -17 -62 -38 -84l88 -88l-23 -23l-87 87c-24 -23 -55 -37 -89 -42v-123h-32v123c-34 5 -66 16 -89 37l-87 -87l-22 23l87 87c-24 26 -36 56 -39 90h-124v32h124c-1 40 11 70 35 96l-87 87l22 24l88 -88
c26 20 62 29 92 31v125h32v-125c31 -1 61 -12 91 -37l88 87zM236 319c0 -75 50 -134 131 -134c83 0 138 59 137 134c-1 76 -55 134 -136 134c-82 -1 -132 -60 -132 -134z" />
    <glyph glyph-name="triagdn" unicode="&#x25bc;" 
d="M370 122l-254 474h508z" />
    <glyph glyph-name="uni255F" unicode="&#x255f;" 
d="M262 -288v1080h72v-1080h-72zM406 -288v1080h72v-504h192v-72h-192v-504h-72z" />
    <glyph glyph-name="triagup" unicode="&#x25b2;" 
d="M116 122l254 474l254 -474h-508z" />
    <glyph glyph-name="uni2567" unicode="&#x2567;" 
d="M70 144v72h600v-72h-600zM70 288v72h264v432h72v-432h264v-72h-600z" />
    <glyph glyph-name="uni2010" unicode="&#x2010;" 
d="M238 229l13 63h222l-13 -63h-222z" />
    <glyph glyph-name="uni2113" unicode="&#x2113;" 
d="M538 150l28 -29c-65 -84 -142 -125 -224 -125c-115 0 -147 84 -134 174c1 4 2 8 2 11c-22 -14 -48 -32 -72 -47l-14 39c35 24 68 44 98 66l55 262c37 177 132 230 207 230c90 0 115 -73 97 -155c-26 -123 -140 -236 -299 -356l-5 -24c-22 -104 29 -148 90 -148
c70 0 135 55 171 102zM344 512l-49 -228c117 96 214 190 235 288c13 63 2 110 -57 110c-41 0 -102 -42 -129 -170z" />
    <glyph glyph-name="uni2568" unicode="&#x2568;" 
d="M70 216v72h192v504h72v-504h72v504h72v-504h192v-72h-600z" />
    <glyph glyph-name="upblock" unicode="&#x2580;" 
d="M70 252v540h600v-540h-600z" />
    <glyph glyph-name="A.superior" 
d="M442 428h-102l-51 -90l-59 20l177 309h70l45 -309l-67 -20zM436 483l-13 97l-53 -97h66zM190 236l12 55h320l-12 -55h-320z" />
    <glyph glyph-name="O.superior" 
d="M190 236l12 55h320l-12 -55h-320zM444 676c94 0 113 -82 95 -165c-17 -82 -71 -164 -165 -164s-111 82 -94 164c18 83 70 165 164 165zM432 621c-55 0 -76 -68 -85 -110s-17 -109 38 -109s78 67 87 109c9 43 15 110 -40 110z" />
    <glyph glyph-name="uni25B6" unicode="&#x25b6;" 
d="M133 106v508l474 -254z" />
    <glyph glyph-name="uni2192" unicode="&#x2192;" 
d="M74 382h460c-15 23 -49 98 -49 123c0 8 5 16 14 16s17 -14 21 -20c31 -46 77 -95 125 -123c6 -3 21 -10 21 -18s-15 -15 -21 -18c-48 -28 -94 -77 -125 -123c-4 -6 -12 -20 -21 -20s-14 8 -14 16c0 25 34 100 49 123h-460v44z" />
    <glyph glyph-name="uni2190" unicode="&#x2190;" 
d="M206 382h460v-44h-460c15 -23 49 -98 49 -123c0 -8 -5 -16 -14 -16s-17 14 -21 20c-31 46 -77 95 -125 123c-6 3 -21 10 -21 18s15 15 21 18c48 28 94 77 125 123c4 6 12 20 21 20s14 -8 14 -16c0 -25 -34 -100 -49 -123z" />
    <glyph glyph-name="uni256C" unicode="&#x256c;" 
d="M70 144v72h264v-504h-72v432h-192zM70 288v72h192v432h72v-504h-264zM406 -288v504h264v-72h-192v-432h-72zM406 288v504h72v-432h192v-72h-264z" />
    <glyph glyph-name="uni2563" unicode="&#x2563;" 
d="M406 -288v1080h72v-1080h-72zM334 792v-504h-264v72h192v432h72zM334 216v-504h-72v432h-192v72h264z" />
  </font>
</defs>
</svg>
